<?xml version="1.0" encoding="UTF-8"?>
<svg version="1.1" xmlns="http://www.w3.org/2000/svg" width="512" height="512">
<path d="M0 0 C143.22 0 286.44 0 434 0 C434 22.44 434 44.88 434 68 C425.585 68.495 425.585 68.495 417 69 C392.28983599 227.11404999 392.28983599 227.11404999 367.60150528 385.23151016 C366.62082214 391.51525079 365.6400672 397.7989802 364.65931219 404.08270961 C363.98904156 408.37722514 363.31882624 412.67174929 362.64873219 416.96629238 C362.38920934 418.62953126 362.12968627 420.2927701 361.87016296 421.95600891 C361.7435491 422.76746359 361.61693524 423.57891826 361.48648459 424.41496247 C360.74836556 429.14511714 360.00977094 433.87519723 359.27075082 438.6052112 C357.08390365 452.60249751 354.90332398 466.60060623 352.75585938 480.60400391 C352.26431446 483.80030934 351.77255466 486.99658166 351.28076935 490.19285011 C350.84325231 493.04588646 350.41020628 495.89957578 349.97747803 498.75334167 C349.72380224 500.40435969 349.46993131 502.05534774 349.21582031 503.70629883 C349.1052404 504.44589907 348.99466049 505.18549931 348.88072968 505.94751167 C348.1137888 510.8862112 348.1137888 510.8862112 347 512 C345.60918389 512.09738578 344.21345055 512.12555421 342.81922913 512.12584114 C341.91217193 512.12844889 341.00511473 512.13105664 340.07057095 512.13374341 C339.06251935 512.13151268 338.05446775 512.12928196 337.01586914 512.12698364 C335.95399667 512.12854363 334.8921242 512.13010362 333.79807377 512.13171089 C330.21042082 512.1357259 326.62280957 512.13252931 323.03515625 512.12939453 C320.47508723 512.13074835 317.9150184 512.13252817 315.35494995 512.13470459 C309.10559736 512.1388051 302.85626042 512.13818556 296.60690761 512.13529195 C291.5301839 512.13303815 286.45346356 512.13272529 281.3767395 512.13381577 C280.65556979 512.133969 279.93440008 512.13412223 279.19137675 512.13428011 C277.72656401 512.13459982 276.26175127 512.13492403 274.79693854 512.1352527 C261.04521457 512.13810767 247.29349726 512.13482021 233.54177439 512.12945233 C221.72934366 512.12498428 209.91692275 512.12576021 198.10449219 512.13037109 C184.40365531 512.13571656 170.70282428 512.13783297 157.0019865 512.13475883 C155.54241117 512.13444026 154.08283583 512.13412589 152.6232605 512.13381577 C151.90502753 512.13366149 151.18679456 512.13350721 150.44679695 512.13334826 C145.37323146 512.13248303 140.29966966 512.13394613 135.22610474 512.13629532 C128.40379223 512.13938463 121.58150124 512.13720099 114.75918961 512.13140106 C112.24724483 512.13007269 109.7352985 512.13046887 107.22335434 512.13266373 C103.81025826 512.13537223 100.397223 512.1319978 96.98413086 512.12698364 C95.47205347 512.13032973 95.47205347 512.13032973 93.92942905 512.13374341 C93.02237185 512.13113566 92.11531466 512.12852791 91.18077087 512.12584114 C90.39187438 512.12567879 89.60297789 512.12551644 88.79017544 512.12534916 C87 512 87 512 86 511 C85.71443798 509.68570842 85.48438849 508.3592792 85.27803135 507.03024769 C85.14228522 506.16919078 85.00653908 505.30813387 84.86667943 504.42098433 C84.72001985 503.46324801 84.57336028 502.50551169 84.42225647 501.51875305 C84.26418321 500.50814833 84.10610996 499.49754361 83.9432466 498.4563145 C83.40884068 495.03308031 82.88036906 491.60895543 82.35180664 488.18481445 C81.97008889 485.73176241 81.58800578 483.2787672 81.20558453 480.82582474 C80.37552224 475.49624831 79.54800848 470.1662854 78.72270966 464.83596992 C77.50952601 457.00059969 76.29160397 449.16597151 75.07256053 441.33151107 C73.05412958 428.35889607 71.03928628 415.38572642 69.02651978 402.41223145 C66.19758472 384.17835391 63.36358835 365.9452655 60.52806173 347.71241197 C59.91289674 343.75679539 59.29776518 339.8011736 58.68262959 335.84555244 C58.43670605 334.26414483 58.19078236 332.68273724 57.94485849 331.10132968 C57.82318929 330.31893877 57.70152009 329.53654785 57.57616394 328.73044811 C57.20800319 326.36302323 56.83983209 323.99559996 56.4716602 321.62817681 C54.876559 311.37116059 53.28207331 301.11404883 51.68789766 290.85688873 C43.73569433 239.69210976 35.74656098 188.53318094 27.72478247 137.37926054 C27.03595672 132.98639281 26.34734544 128.59349147 25.65872192 124.20059204 C22.77422358 105.80012114 19.8882852 87.39987691 17 69 C11.39 68.67 5.78 68.34 0 68 C0 45.56 0 23.12 0 0 Z M30 68 C30.66 72.95 31.32 77.9 32 83 C35.64231208 80.14856703 35.64231208 80.14856703 39 77 C39.30046654 74.06488382 39.30046654 74.06488382 37.79296875 72.39453125 C37.26316406 71.87246094 36.73335937 71.35039063 36.1875 70.8125 C35.66542969 70.28269531 35.14335938 69.75289063 34.60546875 69.20703125 C32.93511618 67.69953346 32.93511618 67.69953346 30 68 Z M58.90283203 73.48632812 C58.60489746 73.98583984 58.30696289 74.48535156 58 75 C62.81867247 80.80891746 68.01256408 86.13065552 73.375 91.4375 C74.20644531 92.26443359 75.03789063 93.09136719 75.89453125 93.94335938 C77.9274104 95.96455531 79.96259963 97.98336335 82 100 C87.80891746 95.18132753 93.13065552 89.98743592 98.4375 84.625 C99.26443359 83.79355469 100.09136719 82.96210937 100.94335938 82.10546875 C102.96455531 80.0725896 104.98336335 78.03740037 107 76 C106.02133662 74.85373678 105.04205413 73.70800212 104.0625 72.5625 C103.51722656 71.92441406 102.97195312 71.28632812 102.41015625 70.62890625 C101.63204305 69.73008851 100.84063472 68.84063472 100 68 C95.12276355 67.65929707 90.24334966 67.60026335 85.35546875 67.54003906 C83.71226726 67.51351494 82.06922958 67.4726803 80.42675781 67.41699219 C68.2612549 66.65016185 68.2612549 66.65016185 58.90283203 73.48632812 Z M126 74 C127.56282982 77.76603869 129.9063475 80.13639151 132.7890625 82.984375 C133.25234955 83.44483215 133.7156366 83.90528931 134.19296265 84.37969971 C135.66565898 85.84125078 137.14517403 87.29567168 138.625 88.75 C139.62806322 89.74302611 140.63067257 90.73651089 141.6328125 91.73046875 C144.08330835 94.15897941 146.5399667 96.58114675 149 99 C152.76603869 97.43717018 155.13639151 95.0936525 157.984375 92.2109375 C158.44483215 91.74765045 158.90528931 91.2843634 159.37969971 90.80703735 C160.84125078 89.33434102 162.29567168 87.85482597 163.75 86.375 C164.74302611 85.37193678 165.73651089 84.36932743 166.73046875 83.3671875 C169.15897941 80.91669165 171.58114675 78.4600333 174 76 C172.54008198 72.59352463 170.98058292 70.24017945 168 68 C165.1833509 67.57767157 162.76275746 67.39157151 159.9453125 67.3984375 C159.16614471 67.38986725 158.38697693 67.381297 157.584198 67.37246704 C155.93849567 67.36100067 154.292692 67.35996526 152.64697266 67.36865234 C150.13917377 67.37496433 147.63611986 67.32808908 145.12890625 67.27734375 C143.52604759 67.27279615 141.92317631 67.27139153 140.3203125 67.2734375 C139.57637238 67.25501801 138.83243225 67.23659851 138.06594849 67.21762085 C131.88486448 67.32647467 129.77614646 69.50118877 126 74 Z M193 74 C194.56282982 77.76603869 196.9063475 80.13639151 199.7890625 82.984375 C200.25234955 83.44483215 200.7156366 83.90528931 201.19296265 84.37969971 C202.66565898 85.84125078 204.14517403 87.29567168 205.625 88.75 C206.62806322 89.74302611 207.63067257 90.73651089 208.6328125 91.73046875 C211.08330835 94.15897941 213.5399667 96.58114675 216 99 C219.76603869 97.43717018 222.13639151 95.0936525 224.984375 92.2109375 C225.44483215 91.74765045 225.90528931 91.2843634 226.37969971 90.80703735 C227.84125078 89.33434102 229.29567168 87.85482597 230.75 86.375 C231.74302611 85.37193678 232.73651089 84.36932743 233.73046875 83.3671875 C236.15897941 80.91669165 238.58114675 78.4600333 241 76 C239.54008198 72.59352463 237.98058292 70.24017945 235 68 C232.1833509 67.57767157 229.76275746 67.39157151 226.9453125 67.3984375 C226.16614471 67.38986725 225.38697693 67.381297 224.584198 67.37246704 C222.93849567 67.36100067 221.292692 67.35996526 219.64697266 67.36865234 C217.13917377 67.37496433 214.63611986 67.32808908 212.12890625 67.27734375 C210.52604759 67.27279615 208.92317631 67.27139153 207.3203125 67.2734375 C206.57637238 67.25501801 205.83243225 67.23659851 205.06594849 67.21762085 C198.88486448 67.32647467 196.77614646 69.50118877 193 74 Z M260.90283203 73.48632812 C260.60489746 73.98583984 260.30696289 74.48535156 260 75 C264.81867247 80.80891746 270.01256408 86.13065552 275.375 91.4375 C276.20644531 92.26443359 277.03789062 93.09136719 277.89453125 93.94335938 C279.9274104 95.96455531 281.96259963 97.98336335 284 100 C289.80891746 95.18132753 295.13065552 89.98743592 300.4375 84.625 C301.26443359 83.79355469 302.09136719 82.96210937 302.94335938 82.10546875 C304.96455531 80.0725896 306.98336335 78.03740037 309 76 C308.02133662 74.85373678 307.04205413 73.70800212 306.0625 72.5625 C305.51722656 71.92441406 304.97195313 71.28632812 304.41015625 70.62890625 C303.63204305 69.73008851 302.84063472 68.84063472 302 68 C297.12276355 67.65929707 292.24334966 67.60026335 287.35546875 67.54003906 C285.71226726 67.51351494 284.06922958 67.4726803 282.42675781 67.41699219 C270.2612549 66.65016185 270.2612549 66.65016185 260.90283203 73.48632812 Z M327.90283203 73.48632812 C327.60489746 73.98583984 327.30696289 74.48535156 327 75 C331.81867247 80.80891746 337.01256408 86.13065552 342.375 91.4375 C343.20644531 92.26443359 344.03789062 93.09136719 344.89453125 93.94335938 C346.9274104 95.96455531 348.96259963 97.98336335 351 100 C356.80891746 95.18132753 362.13065552 89.98743592 367.4375 84.625 C368.26443359 83.79355469 369.09136719 82.96210937 369.94335938 82.10546875 C371.96455531 80.0725896 373.98336335 78.03740037 376 76 C375.02133662 74.85373678 374.04205413 73.70800212 373.0625 72.5625 C372.51722656 71.92441406 371.97195313 71.28632812 371.41015625 70.62890625 C370.63204305 69.73008851 369.84063472 68.84063472 369 68 C364.12276355 67.65929707 359.24334966 67.60026335 354.35546875 67.54003906 C352.71226726 67.51351494 351.06922958 67.4726803 349.42675781 67.41699219 C337.2612549 66.65016185 337.2612549 66.65016185 327.90283203 73.48632812 Z M399.17578125 69.53125 C398.25345703 70.50578125 398.25345703 70.50578125 397.3125 71.5 C396.68988281 72.1496875 396.06726563 72.799375 395.42578125 73.46875 C394.95527344 73.9740625 394.48476563 74.479375 394 75 C394.95421808 76.14926266 395.91352045 77.29430541 396.875 78.4375 C397.40867187 79.07558594 397.94234375 79.71367188 398.4921875 80.37109375 C399.9222757 82.10805004 399.9222757 82.10805004 402 83 C402.66 78.05 403.32 73.1 404 68 C400.98601529 67.6785386 400.98601529 67.6785386 399.17578125 69.53125 Z M39.48608398 92.60546875 C36.92025067 95.32022016 35.20073552 97.18479074 34.296875 100.85546875 C34.58256662 103.69978092 35.23473098 106.24731592 36 109 C36.21413754 111.22861659 36.42230127 113.45781392 36.625 115.6875 C37.63882148 122.19607914 40.19974014 125.65945322 45 130 C46.00340713 130.99658123 47.00457659 131.99544426 48 133 C51.76603869 131.43717018 54.13639151 129.0936525 56.984375 126.2109375 C57.44483215 125.74765045 57.90528931 125.2843634 58.37969971 124.80703735 C59.84125078 123.33434102 61.29567168 121.85482597 62.75 120.375 C63.74302611 119.37193678 64.73651089 118.36932743 65.73046875 117.3671875 C68.15897941 114.91669165 70.58114675 112.4600333 73 110 C71.43904931 106.26193389 69.12570854 103.86757459 66.28125 101.015625 C65.34925781 100.08105469 64.41726562 99.14648438 63.45703125 98.18359375 C62.97186035 97.7026123 62.48668945 97.22163086 61.98681641 96.72607422 C60.49793661 95.24795152 59.02008349 93.75940089 57.54296875 92.26953125 C56.61097656 91.34011719 55.67898437 90.41070312 54.71875 89.453125 C53.43387695 88.17163574 53.43387695 88.17163574 52.12304688 86.86425781 C47.18560051 82.52866209 43.14701276 89.01158278 39.48608398 92.60546875 Z M112.66162109 87.11132812 C111.69374789 88.07951895 110.73138406 89.0532365 109.7734375 90.03125 C109.01191879 90.79701355 109.01191879 90.79701355 108.23501587 91.57824707 C106.61027165 93.21421065 104.9926076 94.85698244 103.375 96.5 C102.27650012 97.60852741 101.17754745 98.71660632 100.078125 99.82421875 C97.38012982 102.54429755 94.68846573 105.27050344 92 108 C93.56282982 111.76603869 95.9063475 114.13639151 98.7890625 116.984375 C99.25234955 117.44483215 99.7156366 117.90528931 100.19296265 118.37969971 C101.66565898 119.84125078 103.14517403 121.29567168 104.625 122.75 C105.62806322 123.74302611 106.63067257 124.73651089 107.6328125 125.73046875 C110.08330835 128.15897941 112.5399667 130.58114675 115 133 C118.76603869 131.43717018 121.13639151 129.0936525 123.984375 126.2109375 C124.44483215 125.74765045 124.90528931 125.2843634 125.37969971 124.80703735 C126.84125078 123.33434102 128.29567168 121.85482597 129.75 120.375 C130.74302611 119.37193678 131.73651089 118.36932743 132.73046875 117.3671875 C135.15897941 114.91669165 137.58114675 112.4600333 140 110 C138.43904931 106.26193389 136.12570854 103.86757459 133.28125 101.015625 C132.34925781 100.08105469 131.41726562 99.14648438 130.45703125 98.18359375 C129.97186035 97.7026123 129.48668945 97.22163086 128.98681641 96.72607422 C127.49793661 95.24795152 126.02008349 93.75940089 124.54296875 92.26953125 C123.61097656 91.34011719 122.67898437 90.41070312 121.71875 89.453125 C120.43387695 88.17163574 120.43387695 88.17163574 119.12304688 86.86425781 C116.08853053 84.19963421 115.66232162 84.40198817 112.66162109 87.11132812 Z M179.66162109 87.11132812 C178.69374789 88.07951895 177.73138406 89.0532365 176.7734375 90.03125 C176.01191879 90.79701355 176.01191879 90.79701355 175.23501587 91.57824707 C173.61027165 93.21421065 171.9926076 94.85698244 170.375 96.5 C169.27650012 97.60852741 168.17754745 98.71660632 167.078125 99.82421875 C164.38012982 102.54429755 161.68846573 105.27050344 159 108 C163.81867247 113.80891746 169.01256408 119.13065552 174.375 124.4375 C175.20644531 125.26443359 176.03789062 126.09136719 176.89453125 126.94335938 C178.9274104 128.96455531 180.96259963 130.98336335 183 133 C188.62303757 128.32533663 193.79741554 123.32234333 198.9375 118.125 C199.71673828 117.34125 200.49597656 116.5575 201.29882812 115.75 C203.20154085 113.83561419 205.10186171 111.91891966 207 110 C205.43904931 106.26193389 203.12570854 103.86757459 200.28125 101.015625 C199.34925781 100.08105469 198.41726562 99.14648438 197.45703125 98.18359375 C196.97186035 97.7026123 196.48668945 97.22163086 195.98681641 96.72607422 C194.49793661 95.24795152 193.02008349 93.75940089 191.54296875 92.26953125 C190.61097656 91.34011719 189.67898437 90.41070312 188.71875 89.453125 C187.43387695 88.17163574 187.43387695 88.17163574 186.12304688 86.86425781 C183.08853053 84.19963421 182.66232162 84.40198817 179.66162109 87.11132812 Z M247.66162109 87.11132812 C246.69374789 88.07951895 245.73138406 89.0532365 244.7734375 90.03125 C244.01191879 90.79701355 244.01191879 90.79701355 243.23501587 91.57824707 C241.61027165 93.21421065 239.9926076 94.85698244 238.375 96.5 C237.27650012 97.60852741 236.17754745 98.71660632 235.078125 99.82421875 C232.38012982 102.54429755 229.68846573 105.27050344 227 108 C228.56282982 111.76603869 230.9063475 114.13639151 233.7890625 116.984375 C234.25234955 117.44483215 234.7156366 117.90528931 235.19296265 118.37969971 C236.66565898 119.84125078 238.14517403 121.29567168 239.625 122.75 C240.62806322 123.74302611 241.63067257 124.73651089 242.6328125 125.73046875 C245.08330835 128.15897941 247.5399667 130.58114675 250 133 C253.76603869 131.43717018 256.13639151 129.0936525 258.984375 126.2109375 C259.44483215 125.74765045 259.90528931 125.2843634 260.37969971 124.80703735 C261.84125078 123.33434102 263.29567168 121.85482597 264.75 120.375 C265.74302611 119.37193678 266.73651089 118.36932743 267.73046875 117.3671875 C270.15897941 114.91669165 272.58114675 112.4600333 275 110 C273.43904931 106.26193389 271.12570854 103.86757459 268.28125 101.015625 C267.34925781 100.08105469 266.41726563 99.14648438 265.45703125 98.18359375 C264.97186035 97.7026123 264.48668945 97.22163086 263.98681641 96.72607422 C262.49793661 95.24795152 261.02008349 93.75940089 259.54296875 92.26953125 C258.61097656 91.34011719 257.67898438 90.41070312 256.71875 89.453125 C255.43387695 88.17163574 255.43387695 88.17163574 254.12304688 86.86425781 C251.08853053 84.19963421 250.66232162 84.40198817 247.66162109 87.11132812 Z M314.66162109 87.11132812 C313.69374789 88.07951895 312.73138406 89.0532365 311.7734375 90.03125 C311.01191879 90.79701355 311.01191879 90.79701355 310.23501587 91.57824707 C308.61027165 93.21421065 306.9926076 94.85698244 305.375 96.5 C304.27650012 97.60852741 303.17754745 98.71660632 302.078125 99.82421875 C299.38012982 102.54429755 296.68846573 105.27050344 294 108 C295.56282982 111.76603869 297.9063475 114.13639151 300.7890625 116.984375 C301.25234955 117.44483215 301.7156366 117.90528931 302.19296265 118.37969971 C303.66565898 119.84125078 305.14517403 121.29567168 306.625 122.75 C307.62806322 123.74302611 308.63067257 124.73651089 309.6328125 125.73046875 C312.08330835 128.15897941 314.5399667 130.58114675 317 133 C320.76603869 131.43717018 323.13639151 129.0936525 325.984375 126.2109375 C326.44483215 125.74765045 326.90528931 125.2843634 327.37969971 124.80703735 C328.84125078 123.33434102 330.29567168 121.85482597 331.75 120.375 C332.74302611 119.37193678 333.73651089 118.36932743 334.73046875 117.3671875 C337.15897941 114.91669165 339.58114675 112.4600333 342 110 C340.43904931 106.26193389 338.12570854 103.86757459 335.28125 101.015625 C334.34925781 100.08105469 333.41726563 99.14648438 332.45703125 98.18359375 C331.97186035 97.7026123 331.48668945 97.22163086 330.98681641 96.72607422 C329.49793661 95.24795152 328.02008349 93.75940089 326.54296875 92.26953125 C325.61097656 91.34011719 324.67898438 90.41070312 323.71875 89.453125 C322.43387695 88.17163574 322.43387695 88.17163574 321.12304688 86.86425781 C318.08853053 84.19963421 317.66232162 84.40198817 314.66162109 87.11132812 Z M381.66162109 87.11132812 C380.69374789 88.07951895 379.73138406 89.0532365 378.7734375 90.03125 C378.01191879 90.79701355 378.01191879 90.79701355 377.23501587 91.57824707 C375.61027165 93.21421065 373.9926076 94.85698244 372.375 96.5 C371.27650012 97.60852741 370.17754745 98.71660632 369.078125 99.82421875 C366.38012982 102.54429755 363.68846573 105.27050344 361 108 C362.56282982 111.76603869 364.9063475 114.13639151 367.7890625 116.984375 C368.25234955 117.44483215 368.7156366 117.90528931 369.19296265 118.37969971 C370.66565898 119.84125078 372.14517403 121.29567168 373.625 122.75 C374.62806322 123.74302611 375.63067257 124.73651089 376.6328125 125.73046875 C379.08330835 128.15897941 381.5399667 130.58114675 384 133 C389.81888991 130.19082874 394.07658432 126.55038616 396.3125 120.375 C396.57131823 118.92163611 396.79593618 117.46205726 397 116 C397.18175781 114.93652344 397.36351562 113.87304688 397.55078125 112.77734375 C398.0905472 109.52038864 398.60549019 106.27778899 399 103 C399.14953125 102.1853125 399.2990625 101.370625 399.453125 100.53125 C398.70038413 96.32628373 395.64354584 94.04365572 392.625 91.1875 C392.02171875 90.59001953 391.4184375 89.99253906 390.796875 89.37695312 C386.62176225 84.65523149 386.62176225 84.65523149 381.66162109 87.11132812 Z M79.68334961 120.203125 C78.67044564 121.21618822 77.66031084 122.23202462 76.65234375 123.25 C76.12105362 123.78270508 75.58976349 124.31541016 75.04237366 124.86425781 C73.33839927 126.5738501 71.63792595 128.28687894 69.9375 130 C68.78603547 131.15647723 67.63434572 132.31273028 66.48242188 133.46875 C63.65232375 136.30990086 60.82536181 139.15413941 58 142 C62.81867247 147.80891746 68.01256408 153.13065552 73.375 158.4375 C74.20644531 159.26443359 75.03789063 160.09136719 75.89453125 160.94335938 C77.9274104 162.96455531 79.96259963 164.98336335 82 167 C87.80891746 162.18132753 93.13065552 156.98743592 98.4375 151.625 C99.26443359 150.79355469 100.09136719 149.96210938 100.94335938 149.10546875 C102.96455531 147.0725896 104.98336335 145.03740037 107 143 C102.18825126 137.20879999 97.02258518 131.87191517 91.6875 126.5625 C90.86443359 125.73556641 90.04136719 124.90863281 89.19335938 124.05664062 C88.41154297 123.27611328 87.62972656 122.49558594 86.82421875 121.69140625 C86.11354248 120.98185791 85.40286621 120.27230957 84.6706543 119.54125977 C82.09170215 117.1620511 82.38835986 117.63067137 79.68334961 120.203125 Z M144.6328125 122.234375 C143.74722656 123.11867188 142.86164063 124.00296875 141.94921875 124.9140625 C141.48563965 125.37973633 141.02206055 125.84541016 140.54443359 126.32519531 C139.14140986 127.73352804 137.73284331 129.13633177 136.32421875 130.5390625 C134.99197266 131.87324219 134.99197266 131.87324219 133.6328125 133.234375 C132.40908936 134.45979004 132.40908936 134.45979004 131.16064453 135.70996094 C129.2626885 137.72157987 127.60072272 139.74904421 126 142 C127.56282982 145.76603869 129.9063475 148.13639151 132.7890625 150.984375 C133.25234955 151.44483215 133.7156366 151.90528931 134.19296265 152.37969971 C135.66565898 153.84125078 137.14517403 155.29567168 138.625 156.75 C139.62806322 157.74302611 140.63067257 158.73651089 141.6328125 159.73046875 C144.08330835 162.15897941 146.5399667 164.58114675 149 167 C154.80891746 162.18132753 160.13065552 156.98743592 165.4375 151.625 C166.26443359 150.79355469 167.09136719 149.96210938 167.94335938 149.10546875 C169.96455531 147.0725896 171.98336335 145.03740037 174 143 C169.18825126 137.20879999 164.02258518 131.87191517 158.6875 126.5625 C157.86443359 125.73556641 157.04136719 124.90863281 156.19335938 124.05664062 C155.41154297 123.27611328 154.62972656 122.49558594 153.82421875 121.69140625 C153.11354248 120.98185791 152.40286621 120.27230957 151.6706543 119.54125977 C148.42913364 116.55079946 147.35108025 119.51987589 144.6328125 122.234375 Z M281.68334961 120.203125 C280.67044564 121.21618822 279.66031084 122.23202462 278.65234375 123.25 C278.12105362 123.78270508 277.58976349 124.31541016 277.04237366 124.86425781 C275.33839927 126.5738501 273.63792595 128.28687894 271.9375 130 C270.78603547 131.15647723 269.63434572 132.31273028 268.48242188 133.46875 C265.65232375 136.30990086 262.82536181 139.15413941 260 142 C264.81867247 147.80891746 270.01256408 153.13065552 275.375 158.4375 C276.20644531 159.26443359 277.03789062 160.09136719 277.89453125 160.94335938 C279.9274104 162.96455531 281.96259963 164.98336335 284 167 C289.80891746 162.18132753 295.13065552 156.98743592 300.4375 151.625 C301.26443359 150.79355469 302.09136719 149.96210938 302.94335938 149.10546875 C304.96455531 147.0725896 306.98336335 145.03740037 309 143 C304.18825126 137.20879999 299.02258518 131.87191517 293.6875 126.5625 C292.86443359 125.73556641 292.04136719 124.90863281 291.19335938 124.05664062 C290.41154297 123.27611328 289.62972656 122.49558594 288.82421875 121.69140625 C288.11354248 120.98185791 287.40286621 120.27230957 286.6706543 119.54125977 C284.09170215 117.1620511 284.38835986 117.63067137 281.68334961 120.203125 Z M348.68334961 120.203125 C347.67044564 121.21618822 346.66031084 122.23202462 345.65234375 123.25 C345.12105362 123.78270508 344.58976349 124.31541016 344.04237366 124.86425781 C342.33839927 126.5738501 340.63792595 128.28687894 338.9375 130 C337.78603547 131.15647723 336.63434572 132.31273028 335.48242188 133.46875 C332.65232375 136.30990086 329.82536181 139.15413941 327 142 C331.81867247 147.80891746 337.01256408 153.13065552 342.375 158.4375 C343.20644531 159.26443359 344.03789062 160.09136719 344.89453125 160.94335938 C346.9274104 162.96455531 348.96259963 164.98336335 351 167 C356.80891746 162.18132753 362.13065552 156.98743592 367.4375 151.625 C368.26443359 150.79355469 369.09136719 149.96210938 369.94335938 149.10546875 C371.96455531 147.0725896 373.98336335 145.03740037 376 143 C371.18825126 137.20879999 366.02258518 131.87191517 360.6875 126.5625 C359.86443359 125.73556641 359.04136719 124.90863281 358.19335938 124.05664062 C357.41154297 123.27611328 356.62972656 122.49558594 355.82421875 121.69140625 C355.11354248 120.98185791 354.40286621 120.27230957 353.6706543 119.54125977 C351.09170215 117.1620511 351.38835986 117.63067137 348.68334961 120.203125 Z M213.66162109 121.11132812 C212.69374789 122.07951895 211.73138406 123.0532365 210.7734375 124.03125 C210.01191879 124.79701355 210.01191879 124.79701355 209.23501587 125.57824707 C207.61027165 127.21421065 205.9926076 128.85698244 204.375 130.5 C203.27650012 131.60852741 202.17754745 132.71660632 201.078125 133.82421875 C198.38012982 136.54429755 195.68846573 139.27050344 193 142 C197.81867247 147.80891746 203.01256408 153.13065552 208.375 158.4375 C209.20644531 159.26443359 210.03789062 160.09136719 210.89453125 160.94335938 C212.9274104 162.96455531 214.96259963 164.98336335 217 167 C222.62303757 162.32533663 227.79741554 157.32234333 232.9375 152.125 C233.71673828 151.34125 234.49597656 150.5575 235.29882812 149.75 C237.20154085 147.83561419 239.10186171 145.91891966 241 144 C239.43904931 140.26193389 237.12570854 137.86757459 234.28125 135.015625 C233.34925781 134.08105469 232.41726563 133.14648438 231.45703125 132.18359375 C230.97186035 131.7026123 230.48668945 131.22163086 229.98681641 130.72607422 C228.49793661 129.24795152 227.02008349 127.75940089 225.54296875 126.26953125 C224.61097656 125.34011719 223.67898438 124.41070312 222.71875 123.453125 C221.43387695 122.17163574 221.43387695 122.17163574 220.12304688 120.86425781 C217.08853053 118.19963421 216.66232162 118.40198817 213.66162109 121.11132812 Z M45.84375 153.5546875 C43.69421414 155.91520936 43.69421414 155.91520936 43.90625 159.1953125 C44.1021875 160.49210938 44.298125 161.78890625 44.5 163.125 C44.6016748 163.83841553 44.70334961 164.55183105 44.80810547 165.28686523 C45.18228873 167.86185808 45.59197568 170.43015483 46 173 C46.34782546 175.30055928 46.69408766 177.60135528 47.0390625 179.90234375 C48.00075911 186.27228182 48.99176739 192.63727444 50 199 C55.43733055 194.47008204 60.46458931 189.65705784 65.4375 184.625 C66.16904297 183.88894531 66.90058594 183.15289062 67.65429688 182.39453125 C69.43852723 180.59863926 71.22036124 178.80044015 73 177 C71.43904931 173.26193389 69.12570854 170.86757459 66.28125 168.015625 C65.34925781 167.08105469 64.41726562 166.14648438 63.45703125 165.18359375 C62.97186035 164.7026123 62.48668945 164.22163086 61.98681641 163.72607422 C60.49793661 162.24795152 59.02008349 160.75940089 57.54296875 159.26953125 C56.61097656 158.34011719 55.67898437 157.41070312 54.71875 156.453125 C53.86216797 155.59879883 53.00558594 154.74447266 52.12304688 153.86425781 C49.33280217 151.41413033 48.83772885 151.39598536 45.84375 153.5546875 Z M113.68334961 154.203125 C112.67044564 155.21618822 111.66031084 156.23202462 110.65234375 157.25 C110.12105362 157.78270508 109.58976349 158.31541016 109.04237366 158.86425781 C107.33839927 160.5738501 105.63792595 162.28687894 103.9375 164 C102.78603547 165.15647723 101.63434572 166.31273028 100.48242188 167.46875 C97.65232375 170.30990086 94.82536181 173.15413941 92 176 C96.67466337 181.62303757 101.67765667 186.79741554 106.875 191.9375 C107.65875 192.71673828 108.4425 193.49597656 109.25 194.29882812 C111.16438581 196.20154085 113.08108034 198.10186171 115 200 C118.76603869 198.43717018 121.13639151 196.0936525 123.984375 193.2109375 C124.44483215 192.74765045 124.90528931 192.2843634 125.37969971 191.80703735 C126.84125078 190.33434102 128.29567168 188.85482597 129.75 187.375 C130.74302611 186.37193678 131.73651089 185.36932743 132.73046875 184.3671875 C135.15897941 181.91669165 137.58114675 179.4600333 140 177 C138.43809102 173.24794633 136.10972261 170.8656188 133.24609375 168.015625 C132.78517838 167.55516785 132.324263 167.09471069 131.84938049 166.62030029 C130.87924882 165.65317817 129.90669939 164.68847596 128.93188477 163.72607422 C127.43377195 162.24631763 125.9439157 160.75861398 124.45507812 159.26953125 C119.50706844 152.68755055 119.50706844 152.68755055 113.68334961 154.203125 Z M180.68334961 154.203125 C179.67044564 155.21618822 178.66031084 156.23202462 177.65234375 157.25 C177.12105362 157.78270508 176.58976349 158.31541016 176.04237366 158.86425781 C174.33839927 160.5738501 172.63792595 162.28687894 170.9375 164 C169.78603547 165.15647723 168.63434572 166.31273028 167.48242188 167.46875 C164.65232375 170.30990086 161.82536181 173.15413941 159 176 C163.81867247 181.80891746 169.01256408 187.13065552 174.375 192.4375 C175.20644531 193.26443359 176.03789062 194.09136719 176.89453125 194.94335938 C178.9274104 196.96455531 180.96259963 198.98336335 183 201 C188.80891746 196.18132753 194.13065552 190.98743592 199.4375 185.625 C200.26443359 184.79355469 201.09136719 183.96210938 201.94335938 183.10546875 C203.96455531 181.0725896 205.98336335 179.03740037 208 177 C203.18825126 171.20879999 198.02258518 165.87191517 192.6875 160.5625 C191.86443359 159.73556641 191.04136719 158.90863281 190.19335938 158.05664062 C189.41154297 157.27611328 188.62972656 156.49558594 187.82421875 155.69140625 C187.11354248 154.98185791 186.40286621 154.27230957 185.6706543 153.54125977 C183.09170215 151.1620511 183.38835986 151.63067137 180.68334961 154.203125 Z M247.77514648 154.11132812 C246.80456006 155.08207377 245.83674224 156.05559221 244.87109375 157.03125 C244.36199966 157.54175903 243.85290558 158.05226807 243.3283844 158.57824707 C241.69573898 160.21651005 240.06659618 161.85820832 238.4375 163.5 C237.33421259 164.60830015 236.23069993 165.71637611 235.12695312 166.82421875 C232.41534381 169.54688036 229.70687186 172.2726287 227 175 C228.56282982 178.76603869 230.9063475 181.13639151 233.7890625 183.984375 C234.25234955 184.44483215 234.7156366 184.90528931 235.19296265 185.37969971 C236.66565898 186.84125078 238.14517403 188.29567168 239.625 189.75 C240.62806322 190.74302611 241.63067257 191.73651089 242.6328125 192.73046875 C245.08330835 195.15897941 247.5399667 197.58114675 250 200 C253.76603869 198.43717018 256.13639151 196.0936525 258.984375 193.2109375 C259.44483215 192.74765045 259.90528931 192.2843634 260.37969971 191.80703735 C261.84125078 190.33434102 263.29567168 188.85482597 264.75 187.375 C265.74302611 186.37193678 266.73651089 185.36932743 267.73046875 184.3671875 C270.15897941 181.91669165 272.58114675 179.4600333 275 177 C270.18825126 171.20879999 265.02258518 165.87191517 259.6875 160.5625 C258.86443359 159.73556641 258.04136719 158.90863281 257.19335938 158.05664062 C256.41154297 157.27611328 255.62972656 156.49558594 254.82421875 155.69140625 C254.11354248 154.98185791 253.40286621 154.27230957 252.6706543 153.54125977 C250.13470437 151.20172274 250.41439618 151.6067488 247.77514648 154.11132812 Z M314.66162109 154.11132812 C313.69374789 155.07951895 312.73138406 156.0532365 311.7734375 157.03125 C311.01191879 157.79701355 311.01191879 157.79701355 310.23501587 158.57824707 C308.61027165 160.21421065 306.9926076 161.85698244 305.375 163.5 C304.27650012 164.60852741 303.17754745 165.71660632 302.078125 166.82421875 C299.38012982 169.54429755 296.68846573 172.27050344 294 175 C295.56282982 178.76603869 297.9063475 181.13639151 300.7890625 183.984375 C301.25234955 184.44483215 301.7156366 184.90528931 302.19296265 185.37969971 C303.66565898 186.84125078 305.14517403 188.29567168 306.625 189.75 C307.62806322 190.74302611 308.63067257 191.73651089 309.6328125 192.73046875 C312.08330835 195.15897941 314.5399667 197.58114675 317 200 C320.76603869 198.43717018 323.13639151 196.0936525 325.984375 193.2109375 C326.44483215 192.74765045 326.90528931 192.2843634 327.37969971 191.80703735 C328.84125078 190.33434102 330.29567168 188.85482597 331.75 187.375 C332.74302611 186.37193678 333.73651089 185.36932743 334.73046875 184.3671875 C337.15897941 181.91669165 339.58114675 179.4600333 342 177 C340.43904931 173.26193389 338.12570854 170.86757459 335.28125 168.015625 C334.34925781 167.08105469 333.41726563 166.14648438 332.45703125 165.18359375 C331.97186035 164.7026123 331.48668945 164.22163086 330.98681641 163.72607422 C329.49793661 162.24795152 328.02008349 160.75940089 326.54296875 159.26953125 C325.61097656 158.34011719 324.67898438 157.41070312 323.71875 156.453125 C322.43387695 155.17163574 322.43387695 155.17163574 321.12304688 153.86425781 C318.08853053 151.19963421 317.66232162 151.40198817 314.66162109 154.11132812 Z M381.66162109 154.11132812 C380.69374789 155.07951895 379.73138406 156.0532365 378.7734375 157.03125 C378.01191879 157.79701355 378.01191879 157.79701355 377.23501587 158.57824707 C375.61027165 160.21421065 373.9926076 161.85698244 372.375 163.5 C371.27650012 164.60852741 370.17754745 165.71660632 369.078125 166.82421875 C366.38012982 169.54429755 363.68846573 172.27050344 361 175 C362.53786831 178.6531577 364.73948958 180.983949 367.53515625 183.765625 C368.42654297 184.65507812 369.31792969 185.54453125 370.23632812 186.4609375 C371.16896484 187.38132813 372.10160156 188.30171875 373.0625 189.25 C374.00886639 190.1949092 374.95483436 191.14021762 375.90039062 192.0859375 C379.49375375 196.44783122 379.49375375 196.44783122 384 199 C384.88393906 193.53907702 385.75641495 188.07649068 386.6184082 182.61206055 C386.9131286 180.75413927 387.21095241 178.89670748 387.51196289 177.03979492 C387.94457556 174.36760726 388.36592548 171.69384683 388.78515625 169.01953125 C388.92156021 168.19226028 389.05796417 167.36498932 389.19850159 166.51264954 C389.82639539 162.43587717 390.30359038 159.01306976 389 155 C387.66621425 153.1645201 387.66621425 153.1645201 386 152 C383.72232209 151.7766153 383.72232209 151.7766153 381.66162109 154.11132812 Z M348.68334961 187.203125 C347.67044564 188.21618822 346.66031084 189.23202462 345.65234375 190.25 C345.12105362 190.78270508 344.58976349 191.31541016 344.04237366 191.86425781 C342.33839927 193.5738501 340.63792595 195.28687894 338.9375 197 C337.78603547 198.15647723 336.63434572 199.31273028 335.48242188 200.46875 C332.65232375 203.30990086 329.82536181 206.15413941 327 209 C331.81867247 214.80891746 337.01256408 220.13065552 342.375 225.4375 C343.20644531 226.26443359 344.03789062 227.09136719 344.89453125 227.94335938 C346.9274104 229.96455531 348.96259963 231.98336335 351 234 C356.80891746 229.18132753 362.13065552 223.98743592 367.4375 218.625 C368.26443359 217.79355469 369.09136719 216.96210938 369.94335938 216.10546875 C371.96455531 214.0725896 373.98336335 212.03740037 376 210 C371.18825126 204.20879999 366.02258518 198.87191517 360.6875 193.5625 C359.86443359 192.73556641 359.04136719 191.90863281 358.19335938 191.05664062 C357.41154297 190.27611328 356.62972656 189.49558594 355.82421875 188.69140625 C355.11354248 187.98185791 354.40286621 187.27230957 353.6706543 186.54125977 C351.09170215 184.1620511 351.38835986 184.63067137 348.68334961 187.203125 Z M79.66162109 188.11132812 C78.69374789 189.07951895 77.73138406 190.0532365 76.7734375 191.03125 C76.01191879 191.79701355 76.01191879 191.79701355 75.23501587 192.57824707 C73.61027165 194.21421065 71.9926076 195.85698244 70.375 197.5 C69.27650012 198.60852741 68.17754745 199.71660632 67.078125 200.82421875 C64.38012982 203.54429755 61.68846573 206.27050344 59 209 C60.56282982 212.76603869 62.9063475 215.13639151 65.7890625 217.984375 C66.25234955 218.44483215 66.7156366 218.90528931 67.19296265 219.37969971 C68.66565898 220.84125078 70.14517403 222.29567168 71.625 223.75 C72.62806322 224.74302611 73.63067257 225.73651089 74.6328125 226.73046875 C77.08330835 229.15897941 79.5399667 231.58114675 82 234 C85.26531834 232.56755544 87.44978295 230.80730732 89.96875 228.296875 C90.70480469 227.56339844 91.44085938 226.82992187 92.19921875 226.07421875 C92.95847656 225.30722656 93.71773437 224.54023438 94.5 223.75 C95.25925781 222.99847656 96.01851562 222.24695313 96.80078125 221.47265625 C97.90486328 220.36470703 97.90486328 220.36470703 99.03125 219.234375 C99.69705078 218.56631836 100.36285156 217.89826172 101.04882812 217.20996094 C103.32157832 214.6357699 105.14988474 211.88861362 107 209 C103.76743024 205.71809541 100.52842394 202.44273543 97.28320312 199.17333984 C96.17950702 198.05956877 95.07761027 196.94401168 93.97753906 195.82666016 C92.39854926 194.22348763 90.81325886 192.62679089 89.2265625 191.03125 C88.73378815 190.52815308 88.24101379 190.02505615 87.73330688 189.50671387 C86.526244 188.29925487 85.26721404 187.14417071 84 186 C81.72232209 185.7766153 81.72232209 185.7766153 79.66162109 188.11132812 Z M146.66162109 188.11132812 C145.69374789 189.07951895 144.73138406 190.0532365 143.7734375 191.03125 C143.01191879 191.79701355 143.01191879 191.79701355 142.23501587 192.57824707 C140.61027165 194.21421065 138.9926076 195.85698244 137.375 197.5 C136.27650012 198.60852741 135.17754745 199.71660632 134.078125 200.82421875 C131.38012982 203.54429755 128.68846573 206.27050344 126 209 C127.56282982 212.76603869 129.9063475 215.13639151 132.7890625 217.984375 C133.25234955 218.44483215 133.7156366 218.90528931 134.19296265 219.37969971 C135.66565898 220.84125078 137.14517403 222.29567168 138.625 223.75 C139.62806322 224.74302611 140.63067257 225.73651089 141.6328125 226.73046875 C144.08330835 229.15897941 146.5399667 231.58114675 149 234 C152.76603869 232.43717018 155.13639151 230.0936525 157.984375 227.2109375 C158.44483215 226.74765045 158.90528931 226.2843634 159.37969971 225.80703735 C160.84125078 224.33434102 162.29567168 222.85482597 163.75 221.375 C164.74302611 220.37193678 165.73651089 219.36932743 166.73046875 218.3671875 C169.15897941 215.91669165 171.58114675 213.4600333 174 211 C172.43904931 207.26193389 170.12570854 204.86757459 167.28125 202.015625 C166.34925781 201.08105469 165.41726562 200.14648438 164.45703125 199.18359375 C163.97186035 198.7026123 163.48668945 198.22163086 162.98681641 197.72607422 C161.49793661 196.24795152 160.02008349 194.75940089 158.54296875 193.26953125 C157.61097656 192.34011719 156.67898437 191.41070312 155.71875 190.453125 C154.43387695 189.17163574 154.43387695 189.17163574 153.12304688 187.86425781 C150.08853053 185.19963421 149.66232162 185.40198817 146.66162109 188.11132812 Z M213.66162109 188.11132812 C212.69374789 189.07951895 211.73138406 190.0532365 210.7734375 191.03125 C210.01191879 191.79701355 210.01191879 191.79701355 209.23501587 192.57824707 C207.61027165 194.21421065 205.9926076 195.85698244 204.375 197.5 C203.27650012 198.60852741 202.17754745 199.71660632 201.078125 200.82421875 C198.38012982 203.54429755 195.68846573 206.27050344 193 209 C194.56282982 212.76603869 196.9063475 215.13639151 199.7890625 217.984375 C200.25234955 218.44483215 200.7156366 218.90528931 201.19296265 219.37969971 C202.66565898 220.84125078 204.14517403 222.29567168 205.625 223.75 C206.62806322 224.74302611 207.63067257 225.73651089 208.6328125 226.73046875 C211.08330835 229.15897941 213.5399667 231.58114675 216 234 C219.76603869 232.43717018 222.13639151 230.0936525 224.984375 227.2109375 C225.44483215 226.74765045 225.90528931 226.2843634 226.37969971 225.80703735 C227.84125078 224.33434102 229.29567168 222.85482597 230.75 221.375 C231.74302611 220.37193678 232.73651089 219.36932743 233.73046875 218.3671875 C236.15897941 215.91669165 238.58114675 213.4600333 241 211 C239.43904931 207.26193389 237.12570854 204.86757459 234.28125 202.015625 C233.34925781 201.08105469 232.41726563 200.14648438 231.45703125 199.18359375 C230.97186035 198.7026123 230.48668945 198.22163086 229.98681641 197.72607422 C228.49793661 196.24795152 227.02008349 194.75940089 225.54296875 193.26953125 C224.61097656 192.34011719 223.67898438 191.41070312 222.71875 190.453125 C221.43387695 189.17163574 221.43387695 189.17163574 220.12304688 187.86425781 C217.08853053 185.19963421 216.66232162 185.40198817 213.66162109 188.11132812 Z M280.66162109 188.11132812 C279.69374789 189.07951895 278.73138406 190.0532365 277.7734375 191.03125 C277.01191879 191.79701355 277.01191879 191.79701355 276.23501587 192.57824707 C274.61027165 194.21421065 272.9926076 195.85698244 271.375 197.5 C270.27650012 198.60852741 269.17754745 199.71660632 268.078125 200.82421875 C265.38012982 203.54429755 262.68846573 206.27050344 260 209 C264.81867247 214.80891746 270.01256408 220.13065552 275.375 225.4375 C276.20644531 226.26443359 277.03789062 227.09136719 277.89453125 227.94335938 C279.9274104 229.96455531 281.96259963 231.98336335 284 234 C289.62303757 229.32533663 294.79741554 224.32234333 299.9375 219.125 C300.71673828 218.34125 301.49597656 217.5575 302.29882812 216.75 C304.20154085 214.83561419 306.10186171 212.91891966 308 211 C306.43904931 207.26193389 304.12570854 204.86757459 301.28125 202.015625 C300.34925781 201.08105469 299.41726563 200.14648438 298.45703125 199.18359375 C297.97186035 198.7026123 297.48668945 198.22163086 296.98681641 197.72607422 C295.49793661 196.24795152 294.02008349 194.75940089 292.54296875 193.26953125 C291.61097656 192.34011719 290.67898438 191.41070312 289.71875 190.453125 C288.43387695 189.17163574 288.43387695 189.17163574 287.12304688 187.86425781 C284.08853053 185.19963421 283.66232162 185.40198817 280.66162109 188.11132812 Z M113.68334961 221.203125 C112.67044564 222.21618822 111.66031084 223.23202462 110.65234375 224.25 C110.12105362 224.78270508 109.58976349 225.31541016 109.04237366 225.86425781 C107.33839927 227.5738501 105.63792595 229.28687894 103.9375 231 C102.78603547 232.15647723 101.63434572 233.31273028 100.48242188 234.46875 C97.65232375 237.30990086 94.82536181 240.15413941 92 243 C96.81867247 248.80891746 102.01256408 254.13065552 107.375 259.4375 C108.20644531 260.26443359 109.03789062 261.09136719 109.89453125 261.94335938 C111.9274104 263.96455531 113.96259963 265.98336335 116 268 C121.80891746 263.18132753 127.13065552 257.98743592 132.4375 252.625 C133.26443359 251.79355469 134.09136719 250.96210938 134.94335938 250.10546875 C136.96455531 248.0725896 138.98336335 246.03740037 141 244 C136.18825126 238.20879999 131.02258518 232.87191517 125.6875 227.5625 C124.86443359 226.73556641 124.04136719 225.90863281 123.19335938 225.05664062 C122.41154297 224.27611328 121.62972656 223.49558594 120.82421875 222.69140625 C120.11354248 221.98185791 119.40286621 221.27230957 118.6706543 220.54125977 C116.09170215 218.1620511 116.38835986 218.63067137 113.68334961 221.203125 Z M180.68334961 221.203125 C179.67044564 222.21618822 178.66031084 223.23202462 177.65234375 224.25 C177.12105362 224.78270508 176.58976349 225.31541016 176.04237366 225.86425781 C174.33839927 227.5738501 172.63792595 229.28687894 170.9375 231 C169.78603547 232.15647723 168.63434572 233.31273028 167.48242188 234.46875 C164.65232375 237.30990086 161.82536181 240.15413941 159 243 C163.81867247 248.80891746 169.01256408 254.13065552 174.375 259.4375 C175.20644531 260.26443359 176.03789062 261.09136719 176.89453125 261.94335938 C178.9274104 263.96455531 180.96259963 265.98336335 183 268 C188.80891746 263.18132753 194.13065552 257.98743592 199.4375 252.625 C200.26443359 251.79355469 201.09136719 250.96210938 201.94335938 250.10546875 C203.96455531 248.0725896 205.98336335 246.03740037 208 244 C203.18825126 238.20879999 198.02258518 232.87191517 192.6875 227.5625 C191.86443359 226.73556641 191.04136719 225.90863281 190.19335938 225.05664062 C189.41154297 224.27611328 188.62972656 223.49558594 187.82421875 222.69140625 C187.11354248 221.98185791 186.40286621 221.27230957 185.6706543 220.54125977 C183.09170215 218.1620511 183.38835986 218.63067137 180.68334961 221.203125 Z M247.68334961 221.203125 C246.67044564 222.21618822 245.66031084 223.23202462 244.65234375 224.25 C244.12105362 224.78270508 243.58976349 225.31541016 243.04237366 225.86425781 C241.33839927 227.5738501 239.63792595 229.28687894 237.9375 231 C236.78603547 232.15647723 235.63434572 233.31273028 234.48242188 234.46875 C231.65232375 237.30990086 228.82536181 240.15413941 226 243 C230.81867247 248.80891746 236.01256408 254.13065552 241.375 259.4375 C242.20644531 260.26443359 243.03789062 261.09136719 243.89453125 261.94335938 C245.9274104 263.96455531 247.96259963 265.98336335 250 268 C255.80891746 263.18132753 261.13065552 257.98743592 266.4375 252.625 C267.26443359 251.79355469 268.09136719 250.96210938 268.94335938 250.10546875 C270.96455531 248.0725896 272.98336335 246.03740037 275 244 C270.18825126 238.20879999 265.02258518 232.87191517 259.6875 227.5625 C258.86443359 226.73556641 258.04136719 225.90863281 257.19335938 225.05664062 C256.41154297 224.27611328 255.62972656 223.49558594 254.82421875 222.69140625 C254.11354248 221.98185791 253.40286621 221.27230957 252.6706543 220.54125977 C250.09170215 218.1620511 250.38835986 218.63067137 247.68334961 221.203125 Z M314.77514648 221.11132812 C313.80456006 222.08207377 312.83674224 223.05559221 311.87109375 224.03125 C311.36199966 224.54175903 310.85290558 225.05226807 310.3283844 225.57824707 C308.69573898 227.21651005 307.06659618 228.85820832 305.4375 230.5 C304.33421259 231.60830015 303.23069993 232.71637611 302.12695312 233.82421875 C299.41534381 236.54688036 296.70687186 239.2726287 294 242 C295.56282982 245.76603869 297.9063475 248.13639151 300.7890625 250.984375 C301.25234955 251.44483215 301.7156366 251.90528931 302.19296265 252.37969971 C303.66565898 253.84125078 305.14517403 255.29567168 306.625 256.75 C307.62806322 257.74302611 308.63067257 258.73651089 309.6328125 259.73046875 C312.08330835 262.15897941 314.5399667 264.58114675 317 267 C320.76603869 265.43717018 323.13639151 263.0936525 325.984375 260.2109375 C326.44483215 259.74765045 326.90528931 259.2843634 327.37969971 258.80703735 C328.84125078 257.33434102 330.29567168 255.85482597 331.75 254.375 C332.74302611 253.37193678 333.73651089 252.36932743 334.73046875 251.3671875 C337.15897941 248.91669165 339.58114675 246.4600333 342 244 C337.18825126 238.20879999 332.02258518 232.87191517 326.6875 227.5625 C325.86443359 226.73556641 325.04136719 225.90863281 324.19335938 225.05664062 C323.41154297 224.27611328 322.62972656 223.49558594 321.82421875 222.69140625 C321.11354248 221.98185791 320.40286621 221.27230957 319.6706543 220.54125977 C317.13470437 218.20172274 317.41439618 218.6067488 314.77514648 221.11132812 Z M55 225 C55.60492686 235.45063307 57.28484583 245.68750074 59 256 C62.28243564 256.33439988 62.28243564 256.33439988 64.91796875 253.375 C66.01550756 252.25750594 67.10507895 251.13214357 68.1875 250 C68.74630859 249.42765625 69.30511719 248.8553125 69.88085938 248.265625 C71.26073093 246.85037212 72.63126734 245.42602845 74 244 C70.13082319 239.27100612 65.99697964 234.88730678 61.6875 230.5625 C61.14770508 230.01819336 60.60791016 229.47388672 60.05175781 228.91308594 C57.88756456 226.22370013 57.88756456 226.22370013 55 225 Z M376.32592773 226.56054688 C375.61895752 227.27275391 374.9119873 227.98496094 374.18359375 228.71875 C373.03793945 229.86923828 373.03793945 229.86923828 371.86914062 231.04296875 C371.06669922 231.85378906 370.26425781 232.66460937 369.4375 233.5 C368.63119141 234.31082031 367.82488281 235.12164062 366.99414062 235.95703125 C364.99385566 237.96915222 362.99593222 239.98356271 361 242 C362.83229178 245.98319666 365.45514005 248.71823524 368.5625 251.75 C369.06974609 252.25660156 369.57699219 252.76320312 370.09960938 253.28515625 C372.19761779 255.85424011 372.19761779 255.85424011 375 257 C375.67415121 252.79283031 376.33799542 248.58409666 377 244.375 C377.28617187 242.59029297 377.28617187 242.59029297 377.578125 240.76953125 C377.75859375 239.61582031 377.9390625 238.46210938 378.125 237.2734375 C378.29257812 236.21560059 378.46015625 235.15776367 378.6328125 234.06787109 C378.99844148 231.0130215 379.06444822 228.07337438 379 225 C377.74047406 224.88635506 377.74047406 224.88635506 376.32592773 226.56054688 Z M71.8125 262.4375 C70.85923828 263.31599609 69.90597656 264.19449219 68.92382812 265.09960938 C64.18311014 269.59697707 64.18311014 269.59697707 61.2746582 275.31469727 C61.30795534 280.43850599 63.88503885 283.37881776 67.25390625 287.03515625 C69.00340533 288.73184026 70.77372624 290.40727431 72.5625 292.0625 C73.46419922 292.92810547 74.36589844 293.79371094 75.29492188 294.68554688 C77.51291165 296.80965349 79.74733339 298.91280685 82 301 C85.76603869 299.43717018 88.13639151 297.0936525 90.984375 294.2109375 C91.44483215 293.74765045 91.90528931 293.2843634 92.37969971 292.80703735 C93.84125078 291.33434102 95.29567168 289.85482597 96.75 288.375 C97.74302611 287.37193678 98.73651089 286.36932743 99.73046875 285.3671875 C102.15897941 282.91669165 104.58114675 280.4600333 107 278 C105.43904931 274.26193389 103.12570854 271.86757459 100.28125 269.015625 C99.34925781 268.08105469 98.41726562 267.14648438 97.45703125 266.18359375 C96.97186035 265.7026123 96.48668945 265.22163086 95.98681641 264.72607422 C94.49793661 263.24795152 93.02008349 261.75940089 91.54296875 260.26953125 C90.61097656 259.34011719 89.67898437 258.41070312 88.71875 257.453125 C87.43387695 256.17163574 87.43387695 256.17163574 86.12304688 254.86425781 C80.80504469 250.19449416 75.70016256 258.66691968 71.8125 262.4375 Z M146.66162109 255.11132812 C145.69374789 256.07951895 144.73138406 257.0532365 143.7734375 258.03125 C143.01191879 258.79701355 143.01191879 258.79701355 142.23501587 259.57824707 C140.61027165 261.21421065 138.9926076 262.85698244 137.375 264.5 C136.27650012 265.60852741 135.17754745 266.71660632 134.078125 267.82421875 C131.38012982 270.54429755 128.68846573 273.27050344 126 276 C127.56282982 279.76603869 129.9063475 282.13639151 132.7890625 284.984375 C133.25234955 285.44483215 133.7156366 285.90528931 134.19296265 286.37969971 C135.66565898 287.84125078 137.14517403 289.29567168 138.625 290.75 C139.62806322 291.74302611 140.63067257 292.73651089 141.6328125 293.73046875 C144.08330835 296.15897941 146.5399667 298.58114675 149 301 C152.76603869 299.43717018 155.13639151 297.0936525 157.984375 294.2109375 C158.44483215 293.74765045 158.90528931 293.2843634 159.37969971 292.80703735 C160.84125078 291.33434102 162.29567168 289.85482597 163.75 288.375 C164.74302611 287.37193678 165.73651089 286.36932743 166.73046875 285.3671875 C169.15897941 282.91669165 171.58114675 280.4600333 174 278 C172.43904931 274.26193389 170.12570854 271.86757459 167.28125 269.015625 C166.34925781 268.08105469 165.41726562 267.14648438 164.45703125 266.18359375 C163.97186035 265.7026123 163.48668945 265.22163086 162.98681641 264.72607422 C161.49793661 263.24795152 160.02008349 261.75940089 158.54296875 260.26953125 C157.61097656 259.34011719 156.67898437 258.41070312 155.71875 257.453125 C154.43387695 256.17163574 154.43387695 256.17163574 153.12304688 254.86425781 C150.08853053 252.19963421 149.66232162 252.40198817 146.66162109 255.11132812 Z M213.66162109 255.11132812 C212.69374789 256.07951895 211.73138406 257.0532365 210.7734375 258.03125 C210.01191879 258.79701355 210.01191879 258.79701355 209.23501587 259.57824707 C207.61027165 261.21421065 205.9926076 262.85698244 204.375 264.5 C203.27650012 265.60852741 202.17754745 266.71660632 201.078125 267.82421875 C198.38012982 270.54429755 195.68846573 273.27050344 193 276 C194.56282982 279.76603869 196.9063475 282.13639151 199.7890625 284.984375 C200.25234955 285.44483215 200.7156366 285.90528931 201.19296265 286.37969971 C202.66565898 287.84125078 204.14517403 289.29567168 205.625 290.75 C206.62806322 291.74302611 207.63067257 292.73651089 208.6328125 293.73046875 C211.08330835 296.15897941 213.5399667 298.58114675 216 301 C219.76603869 299.43717018 222.13639151 297.0936525 224.984375 294.2109375 C225.44483215 293.74765045 225.90528931 293.2843634 226.37969971 292.80703735 C227.84125078 291.33434102 229.29567168 289.85482597 230.75 288.375 C231.74302611 287.37193678 232.73651089 286.36932743 233.73046875 285.3671875 C236.15897941 282.91669165 238.58114675 280.4600333 241 278 C239.43904931 274.26193389 237.12570854 271.86757459 234.28125 269.015625 C233.34925781 268.08105469 232.41726563 267.14648438 231.45703125 266.18359375 C230.97186035 265.7026123 230.48668945 265.22163086 229.98681641 264.72607422 C228.49793661 263.24795152 227.02008349 261.75940089 225.54296875 260.26953125 C224.61097656 259.34011719 223.67898438 258.41070312 222.71875 257.453125 C221.43387695 256.17163574 221.43387695 256.17163574 220.12304688 254.86425781 C217.08853053 252.19963421 216.66232162 252.40198817 213.66162109 255.11132812 Z M280.66162109 255.11132812 C279.69374789 256.07951895 278.73138406 257.0532365 277.7734375 258.03125 C277.01191879 258.79701355 277.01191879 258.79701355 276.23501587 259.57824707 C274.61027165 261.21421065 272.9926076 262.85698244 271.375 264.5 C270.27650012 265.60852741 269.17754745 266.71660632 268.078125 267.82421875 C265.38012982 270.54429755 262.68846573 273.27050344 260 276 C261.56282982 279.76603869 263.9063475 282.13639151 266.7890625 284.984375 C267.25234955 285.44483215 267.7156366 285.90528931 268.19296265 286.37969971 C269.66565898 287.84125078 271.14517403 289.29567168 272.625 290.75 C273.62806322 291.74302611 274.63067257 292.73651089 275.6328125 293.73046875 C278.08330835 296.15897941 280.5399667 298.58114675 283 301 C286.76603869 299.43717018 289.13639151 297.0936525 291.984375 294.2109375 C292.44483215 293.74765045 292.90528931 293.2843634 293.37969971 292.80703735 C294.84125078 291.33434102 296.29567168 289.85482597 297.75 288.375 C298.74302611 287.37193678 299.73651089 286.36932743 300.73046875 285.3671875 C303.15897941 282.91669165 305.58114675 280.4600333 308 278 C306.43904931 274.26193389 304.12570854 271.86757459 301.28125 269.015625 C300.34925781 268.08105469 299.41726563 267.14648438 298.45703125 266.18359375 C297.97186035 265.7026123 297.48668945 265.22163086 296.98681641 264.72607422 C295.49793661 263.24795152 294.02008349 261.75940089 292.54296875 260.26953125 C291.61097656 259.34011719 290.67898438 258.41070312 289.71875 257.453125 C288.43387695 256.17163574 288.43387695 256.17163574 287.12304688 254.86425781 C284.08853053 252.19963421 283.66232162 252.40198817 280.66162109 255.11132812 Z M347.66162109 255.11132812 C346.69374789 256.07951895 345.73138406 257.0532365 344.7734375 258.03125 C344.01191879 258.79701355 344.01191879 258.79701355 343.23501587 259.57824707 C341.61027165 261.21421065 339.9926076 262.85698244 338.375 264.5 C337.27650012 265.60852741 336.17754745 266.71660632 335.078125 267.82421875 C332.38012982 270.54429755 329.68846573 273.27050344 327 276 C331.81867247 281.80891746 337.01256408 287.13065552 342.375 292.4375 C343.20644531 293.26443359 344.03789062 294.09136719 344.89453125 294.94335938 C346.9274104 296.96455531 348.96259963 298.98336335 351 301 C355.72688623 297.00246104 360.38682946 292.95230095 364.875 288.6875 C365.45507812 288.16994141 366.03515625 287.65238281 366.6328125 287.11914062 C370.21323781 283.67674573 372.36661131 280.50010512 372.60449219 275.43334961 C371.22120169 269.8649908 366.26035001 266.1909108 362.1875 262.4375 C361.24583984 261.52419922 360.30417969 260.61089844 359.33398438 259.66992188 C354.01194498 253.2780931 354.01194498 253.2780931 347.66162109 255.11132812 Z M113.68334961 288.203125 C112.67044564 289.21618822 111.66031084 290.23202462 110.65234375 291.25 C110.12105362 291.78270508 109.58976349 292.31541016 109.04237366 292.86425781 C107.33839927 294.5738501 105.63792595 296.28687894 103.9375 298 C102.78603547 299.15647723 101.63434572 300.31273028 100.48242188 301.46875 C97.65232375 304.30990086 94.82536181 307.15413941 92 310 C96.81867247 315.80891746 102.01256408 321.13065552 107.375 326.4375 C108.20644531 327.26443359 109.03789062 328.09136719 109.89453125 328.94335938 C111.9274104 330.96455531 113.96259963 332.98336335 116 335 C121.80891746 330.18132753 127.13065552 324.98743592 132.4375 319.625 C133.26443359 318.79355469 134.09136719 317.96210938 134.94335938 317.10546875 C136.96455531 315.0725896 138.98336335 313.03740037 141 311 C136.18825126 305.20879999 131.02258518 299.87191517 125.6875 294.5625 C124.86443359 293.73556641 124.04136719 292.90863281 123.19335938 292.05664062 C122.41154297 291.27611328 121.62972656 290.49558594 120.82421875 289.69140625 C120.11354248 288.98185791 119.40286621 288.27230957 118.6706543 287.54125977 C116.09170215 285.1620511 116.38835986 285.63067137 113.68334961 288.203125 Z M180.68334961 288.203125 C179.67044564 289.21618822 178.66031084 290.23202462 177.65234375 291.25 C177.12105362 291.78270508 176.58976349 292.31541016 176.04237366 292.86425781 C174.33839927 294.5738501 172.63792595 296.28687894 170.9375 298 C169.78603547 299.15647723 168.63434572 300.31273028 167.48242188 301.46875 C164.65232375 304.30990086 161.82536181 307.15413941 159 310 C163.81867247 315.80891746 169.01256408 321.13065552 174.375 326.4375 C175.20644531 327.26443359 176.03789062 328.09136719 176.89453125 328.94335938 C178.9274104 330.96455531 180.96259963 332.98336335 183 335 C188.80891746 330.18132753 194.13065552 324.98743592 199.4375 319.625 C200.26443359 318.79355469 201.09136719 317.96210938 201.94335938 317.10546875 C203.96455531 315.0725896 205.98336335 313.03740037 208 311 C203.18825126 305.20879999 198.02258518 299.87191517 192.6875 294.5625 C191.86443359 293.73556641 191.04136719 292.90863281 190.19335938 292.05664062 C189.41154297 291.27611328 188.62972656 290.49558594 187.82421875 289.69140625 C187.11354248 288.98185791 186.40286621 288.27230957 185.6706543 287.54125977 C183.09170215 285.1620511 183.38835986 285.63067137 180.68334961 288.203125 Z M247.68334961 288.203125 C246.67044564 289.21618822 245.66031084 290.23202462 244.65234375 291.25 C244.12105362 291.78270508 243.58976349 292.31541016 243.04237366 292.86425781 C241.33839927 294.5738501 239.63792595 296.28687894 237.9375 298 C236.78603547 299.15647723 235.63434572 300.31273028 234.48242188 301.46875 C231.65232375 304.30990086 228.82536181 307.15413941 226 310 C230.81867247 315.80891746 236.01256408 321.13065552 241.375 326.4375 C242.20644531 327.26443359 243.03789062 328.09136719 243.89453125 328.94335938 C245.9274104 330.96455531 247.96259963 332.98336335 250 335 C255.80891746 330.18132753 261.13065552 324.98743592 266.4375 319.625 C267.26443359 318.79355469 268.09136719 317.96210938 268.94335938 317.10546875 C270.96455531 315.0725896 272.98336335 313.03740037 275 311 C270.18825126 305.20879999 265.02258518 299.87191517 259.6875 294.5625 C258.86443359 293.73556641 258.04136719 292.90863281 257.19335938 292.05664062 C256.41154297 291.27611328 255.62972656 290.49558594 254.82421875 289.69140625 C254.11354248 288.98185791 253.40286621 288.27230957 252.6706543 287.54125977 C250.09170215 285.1620511 250.38835986 285.63067137 247.68334961 288.203125 Z M314.68334961 288.203125 C313.67044564 289.21618822 312.66031084 290.23202462 311.65234375 291.25 C311.12105362 291.78270508 310.58976349 292.31541016 310.04237366 292.86425781 C308.33839927 294.5738501 306.63792595 296.28687894 304.9375 298 C303.78603547 299.15647723 302.63434572 300.31273028 301.48242188 301.46875 C298.65232375 304.30990086 295.82536181 307.15413941 293 310 C297.81867247 315.80891746 303.01256408 321.13065552 308.375 326.4375 C309.20644531 327.26443359 310.03789062 328.09136719 310.89453125 328.94335938 C312.9274104 330.96455531 314.96259963 332.98336335 317 335 C322.80891746 330.18132753 328.13065552 324.98743592 333.4375 319.625 C334.26443359 318.79355469 335.09136719 317.96210938 335.94335938 317.10546875 C337.96455531 315.0725896 339.98336335 313.03740037 342 311 C337.18825126 305.20879999 332.02258518 299.87191517 326.6875 294.5625 C325.86443359 293.73556641 325.04136719 292.90863281 324.19335938 292.05664062 C323.41154297 291.27611328 322.62972656 290.49558594 321.82421875 289.69140625 C321.11354248 288.98185791 320.40286621 288.27230957 319.6706543 287.54125977 C317.09170215 285.1620511 317.38835986 285.63067137 314.68334961 288.203125 Z M67 304 C67.33 307.3 67.66 310.6 68 314 C68.99 314 69.98 314 71 314 C71.66 313.34 72.32 312.68 73 312 C73.05081138 310.02418332 73.05081138 310.02418332 72 308 C69.52338502 305.75149517 69.52338502 305.75149517 67 304 Z M366 305 C364.30911778 306.97956942 362.64169528 308.97945196 361 311 C362.37485532 312.54166642 362.37485532 312.54166642 364 314 C364.66 314 365.32 314 366 314 C366.33 311.03 366.66 308.06 367 305 C366.67 305 366.34 305 366 305 Z M74.56201172 325.10791016 C71.9202953 328.05481977 71.04204113 330.20195182 70.83203125 334.18847656 C71.6132107 346.39275045 72.66715753 359.31080184 82 368 C85.76603869 366.43717018 88.13639151 364.0936525 90.984375 361.2109375 C91.44483215 360.74765045 91.90528931 360.2843634 92.37969971 359.80703735 C93.84125078 358.33434102 95.29567168 356.85482597 96.75 355.375 C97.74302611 354.37193678 98.73651089 353.36932743 99.73046875 352.3671875 C102.15897941 349.91669165 104.58114675 347.4600333 107 345 C105.43904931 341.26193389 103.12570854 338.86757459 100.28125 336.015625 C99.34925781 335.08105469 98.41726562 334.14648438 97.45703125 333.18359375 C96.97186035 332.7026123 96.48668945 332.22163086 95.98681641 331.72607422 C94.49793661 330.24795152 93.02008349 328.75940089 91.54296875 327.26953125 C90.61097656 326.34011719 89.67898437 325.41070312 88.71875 324.453125 C87.43387695 323.17163574 87.43387695 323.17163574 86.12304688 321.86425781 C81.76392629 318.03649277 78.33867897 321.82677563 74.56201172 325.10791016 Z M146.66162109 322.11132812 C145.69374789 323.07951895 144.73138406 324.0532365 143.7734375 325.03125 C143.01191879 325.79701355 143.01191879 325.79701355 142.23501587 326.57824707 C140.61027165 328.21421065 138.9926076 329.85698244 137.375 331.5 C136.27650012 332.60852741 135.17754745 333.71660632 134.078125 334.82421875 C131.38012982 337.54429755 128.68846573 340.27050344 126 343 C127.56282982 346.76603869 129.9063475 349.13639151 132.7890625 351.984375 C133.25234955 352.44483215 133.7156366 352.90528931 134.19296265 353.37969971 C135.66565898 354.84125078 137.14517403 356.29567168 138.625 357.75 C139.62806322 358.74302611 140.63067257 359.73651089 141.6328125 360.73046875 C144.08330835 363.15897941 146.5399667 365.58114675 149 368 C152.76603869 366.43717018 155.13639151 364.0936525 157.984375 361.2109375 C158.44483215 360.74765045 158.90528931 360.2843634 159.37969971 359.80703735 C160.84125078 358.33434102 162.29567168 356.85482597 163.75 355.375 C164.74302611 354.37193678 165.73651089 353.36932743 166.73046875 352.3671875 C169.15897941 349.91669165 171.58114675 347.4600333 174 345 C172.43904931 341.26193389 170.12570854 338.86757459 167.28125 336.015625 C166.34925781 335.08105469 165.41726562 334.14648438 164.45703125 333.18359375 C163.97186035 332.7026123 163.48668945 332.22163086 162.98681641 331.72607422 C161.49793661 330.24795152 160.02008349 328.75940089 158.54296875 327.26953125 C157.61097656 326.34011719 156.67898437 325.41070312 155.71875 324.453125 C154.43387695 323.17163574 154.43387695 323.17163574 153.12304688 321.86425781 C150.08853053 319.19963421 149.66232162 319.40198817 146.66162109 322.11132812 Z M213.66162109 322.11132812 C212.69374789 323.07951895 211.73138406 324.0532365 210.7734375 325.03125 C210.01191879 325.79701355 210.01191879 325.79701355 209.23501587 326.57824707 C207.61027165 328.21421065 205.9926076 329.85698244 204.375 331.5 C203.27650012 332.60852741 202.17754745 333.71660632 201.078125 334.82421875 C198.38012982 337.54429755 195.68846573 340.27050344 193 343 C194.56282982 346.76603869 196.9063475 349.13639151 199.7890625 351.984375 C200.25234955 352.44483215 200.7156366 352.90528931 201.19296265 353.37969971 C202.66565898 354.84125078 204.14517403 356.29567168 205.625 357.75 C206.62806322 358.74302611 207.63067257 359.73651089 208.6328125 360.73046875 C211.08330835 363.15897941 213.5399667 365.58114675 216 368 C219.76603869 366.43717018 222.13639151 364.0936525 224.984375 361.2109375 C225.44483215 360.74765045 225.90528931 360.2843634 226.37969971 359.80703735 C227.84125078 358.33434102 229.29567168 356.85482597 230.75 355.375 C231.74302611 354.37193678 232.73651089 353.36932743 233.73046875 352.3671875 C236.15897941 349.91669165 238.58114675 347.4600333 241 345 C239.43904931 341.26193389 237.12570854 338.86757459 234.28125 336.015625 C233.34925781 335.08105469 232.41726563 334.14648438 231.45703125 333.18359375 C230.97186035 332.7026123 230.48668945 332.22163086 229.98681641 331.72607422 C228.49793661 330.24795152 227.02008349 328.75940089 225.54296875 327.26953125 C224.61097656 326.34011719 223.67898438 325.41070312 222.71875 324.453125 C221.43387695 323.17163574 221.43387695 323.17163574 220.12304688 321.86425781 C217.08853053 319.19963421 216.66232162 319.40198817 213.66162109 322.11132812 Z M280.66162109 322.11132812 C279.69374789 323.07951895 278.73138406 324.0532365 277.7734375 325.03125 C277.01191879 325.79701355 277.01191879 325.79701355 276.23501587 326.57824707 C274.61027165 328.21421065 272.9926076 329.85698244 271.375 331.5 C270.27650012 332.60852741 269.17754745 333.71660632 268.078125 334.82421875 C265.38012982 337.54429755 262.68846573 340.27050344 260 343 C261.56282982 346.76603869 263.9063475 349.13639151 266.7890625 351.984375 C267.25234955 352.44483215 267.7156366 352.90528931 268.19296265 353.37969971 C269.66565898 354.84125078 271.14517403 356.29567168 272.625 357.75 C273.62806322 358.74302611 274.63067257 359.73651089 275.6328125 360.73046875 C278.08330835 363.15897941 280.5399667 365.58114675 283 368 C286.76603869 366.43717018 289.13639151 364.0936525 291.984375 361.2109375 C292.44483215 360.74765045 292.90528931 360.2843634 293.37969971 359.80703735 C294.84125078 358.33434102 296.29567168 356.85482597 297.75 355.375 C298.74302611 354.37193678 299.73651089 353.36932743 300.73046875 352.3671875 C303.15897941 349.91669165 305.58114675 347.4600333 308 345 C306.43904931 341.26193389 304.12570854 338.86757459 301.28125 336.015625 C300.34925781 335.08105469 299.41726563 334.14648438 298.45703125 333.18359375 C297.97186035 332.7026123 297.48668945 332.22163086 296.98681641 331.72607422 C295.49793661 330.24795152 294.02008349 328.75940089 292.54296875 327.26953125 C291.61097656 326.34011719 290.67898438 325.41070312 289.71875 324.453125 C288.43387695 323.17163574 288.43387695 323.17163574 287.12304688 321.86425781 C284.08853053 319.19963421 283.66232162 319.40198817 280.66162109 322.11132812 Z M348.68334961 322.203125 C347.67044564 323.21618822 346.66031084 324.23202462 345.65234375 325.25 C345.12105362 325.78270508 344.58976349 326.31541016 344.04237366 326.86425781 C342.33839927 328.5738501 340.63792595 330.28687894 338.9375 332 C337.78603547 333.15647723 336.63434572 334.31273028 335.48242188 335.46875 C332.65232375 338.30990086 329.82536181 341.15413941 327 344 C331.67466337 349.62303757 336.67765667 354.79741554 341.875 359.9375 C342.65875 360.71673828 343.4425 361.49597656 344.25 362.29882812 C346.16438581 364.20154085 348.08108034 366.10186171 350 368 C353.36174682 366.385992 355.6471839 364.96335698 358 362 C358.72912837 359.48888189 359.24072511 357.24861528 359.625 354.6875 C359.73473145 353.98471924 359.84446289 353.28193848 359.95751953 352.55786133 C360.18490745 351.09521719 360.40801105 349.63190095 360.62695312 348.16796875 C360.98761135 346.07199689 361.47411 344.05571354 362.015625 342 C363.67865776 335.5178626 363.67865776 335.5178626 362.01806641 329.28027344 C359.13999136 325.62935217 355.74320297 322.73214056 352 320 C350.58794453 319.88514522 350.58794453 319.88514522 348.68334961 322.203125 Z M113.68334961 355.203125 C112.67044564 356.21618822 111.66031084 357.23202462 110.65234375 358.25 C110.12105362 358.78270508 109.58976349 359.31541016 109.04237366 359.86425781 C107.33839927 361.5738501 105.63792595 363.28687894 103.9375 365 C102.78603547 366.15647723 101.63434572 367.31273028 100.48242188 368.46875 C97.65232375 371.30990086 94.82536181 374.15413941 92 377 C96.81867247 382.80891746 102.01256408 388.13065552 107.375 393.4375 C108.20644531 394.26443359 109.03789062 395.09136719 109.89453125 395.94335938 C111.9274104 397.96455531 113.96259963 399.98336335 116 402 C121.80891746 397.18132753 127.13065552 391.98743592 132.4375 386.625 C133.26443359 385.79355469 134.09136719 384.96210938 134.94335938 384.10546875 C136.96455531 382.0725896 138.98336335 380.03740037 141 378 C136.18825126 372.20879999 131.02258518 366.87191517 125.6875 361.5625 C124.86443359 360.73556641 124.04136719 359.90863281 123.19335938 359.05664062 C122.41154297 358.27611328 121.62972656 357.49558594 120.82421875 356.69140625 C120.11354248 355.98185791 119.40286621 355.27230957 118.6706543 354.54125977 C116.09170215 352.1620511 116.38835986 352.63067137 113.68334961 355.203125 Z M180.68334961 355.203125 C179.67044564 356.21618822 178.66031084 357.23202462 177.65234375 358.25 C177.12105362 358.78270508 176.58976349 359.31541016 176.04237366 359.86425781 C174.33839927 361.5738501 172.63792595 363.28687894 170.9375 365 C169.78603547 366.15647723 168.63434572 367.31273028 167.48242188 368.46875 C164.65232375 371.30990086 161.82536181 374.15413941 159 377 C163.81867247 382.80891746 169.01256408 388.13065552 174.375 393.4375 C175.20644531 394.26443359 176.03789062 395.09136719 176.89453125 395.94335938 C178.9274104 397.96455531 180.96259963 399.98336335 183 402 C188.62303757 397.32533663 193.79741554 392.32234333 198.9375 387.125 C199.71673828 386.34125 200.49597656 385.5575 201.29882812 384.75 C203.20154085 382.83561419 205.10186171 380.91891966 207 379 C205.58954072 374.62066846 203.49881051 372.13545863 200.24609375 368.91796875 C199.78517838 368.45892654 199.324263 367.99988434 198.84938049 367.52693176 C197.88038517 366.5646256 196.90781507 365.60590704 195.93188477 364.65063477 C194.43167914 363.18180086 192.94261215 361.70235854 191.45507812 360.22070312 C186.49855352 353.67268535 186.49855352 353.67268535 180.68334961 355.203125 Z M247.68334961 355.203125 C246.67044564 356.21618822 245.66031084 357.23202462 244.65234375 358.25 C244.12105362 358.78270508 243.58976349 359.31541016 243.04237366 359.86425781 C241.33839927 361.5738501 239.63792595 363.28687894 237.9375 365 C236.78603547 366.15647723 235.63434572 367.31273028 234.48242188 368.46875 C231.65232375 371.30990086 228.82536181 374.15413941 226 377 C230.81867247 382.80891746 236.01256408 388.13065552 241.375 393.4375 C242.20644531 394.26443359 243.03789062 395.09136719 243.89453125 395.94335938 C245.9274104 397.96455531 247.96259963 399.98336335 250 402 C255.80891746 397.18132753 261.13065552 391.98743592 266.4375 386.625 C267.26443359 385.79355469 268.09136719 384.96210938 268.94335938 384.10546875 C270.96455531 382.0725896 272.98336335 380.03740037 275 378 C270.18825126 372.20879999 265.02258518 366.87191517 259.6875 361.5625 C258.86443359 360.73556641 258.04136719 359.90863281 257.19335938 359.05664062 C256.41154297 358.27611328 255.62972656 357.49558594 254.82421875 356.69140625 C254.11354248 355.98185791 253.40286621 355.27230957 252.6706543 354.54125977 C250.09170215 352.1620511 250.38835986 352.63067137 247.68334961 355.203125 Z M314.66162109 356.11132812 C313.69374789 357.07951895 312.73138406 358.0532365 311.7734375 359.03125 C311.01191879 359.79701355 311.01191879 359.79701355 310.23501587 360.57824707 C308.61027165 362.21421065 306.9926076 363.85698244 305.375 365.5 C304.27650012 366.60852741 303.17754745 367.71660632 302.078125 368.82421875 C299.38012982 371.54429755 296.68846573 374.27050344 294 377 C295.56282982 380.76603869 297.9063475 383.13639151 300.7890625 385.984375 C301.25234955 386.44483215 301.7156366 386.90528931 302.19296265 387.37969971 C303.66565898 388.84125078 305.14517403 390.29567168 306.625 391.75 C307.62806322 392.74302611 308.63067257 393.73651089 309.6328125 394.73046875 C312.08330835 397.15897941 314.5399667 399.58114675 317 402 C322.80891746 397.18132753 328.13065552 391.98743592 333.4375 386.625 C334.26443359 385.79355469 335.09136719 384.96210938 335.94335938 384.10546875 C337.96455531 382.0725896 339.98336335 380.03740037 342 378 C337.33992095 372.41235744 332.39136454 367.20827395 327.25 362.0625 C326.48300781 361.28326172 325.71601563 360.50402344 324.92578125 359.70117188 C324.19230469 358.96576172 323.45882813 358.23035156 322.703125 357.47265625 C322.03958008 356.80500244 321.37603516 356.13734863 320.69238281 355.44946289 C317.93166632 353.08501196 317.32907353 353.70287869 314.66162109 356.11132812 Z M82 387 C79.5438368 390.36681216 80.03717233 393.22252496 80.63690186 397.19558716 C80.77219299 397.99987152 80.90748413 398.80415588 81.046875 399.6328125 C81.24376923 400.88238235 81.24376923 400.88238235 81.44464111 402.15719604 C81.72452602 403.91486911 82.0107079 405.67154945 82.30273438 407.42724609 C82.74912982 410.11975136 83.17291244 412.81511361 83.59375 415.51171875 C83.86845813 417.21896511 84.14445589 418.92600456 84.421875 420.6328125 C84.54906921 421.44114532 84.67626343 422.24947815 84.80731201 423.08230591 C85.45081235 427.48805956 85.45081235 427.48805956 88 431 C94.27 424.73 100.54 418.46 107 412 C101.88720908 406.03450866 101.88720908 406.03450866 96.51171875 400.37890625 C95.72345703 399.58935547 94.93519531 398.79980469 94.12304688 397.98632812 C93.31931641 397.18646484 92.51558594 396.38660156 91.6875 395.5625 C90.86443359 394.73556641 90.04136719 393.90863281 89.19335938 393.05664062 C88.41154297 392.27611328 87.62972656 391.49558594 86.82421875 390.69140625 C86.11354248 389.98185791 85.40286621 389.27230957 84.6706543 388.54125977 C83.25633525 386.88698827 83.25633525 386.88698827 82 387 Z M146.66162109 389.11132812 C145.69374789 390.07951895 144.73138406 391.0532365 143.7734375 392.03125 C143.01191879 392.79701355 143.01191879 392.79701355 142.23501587 393.57824707 C140.61027165 395.21421065 138.9926076 396.85698244 137.375 398.5 C136.27650012 399.60852741 135.17754745 400.71660632 134.078125 401.82421875 C131.38012982 404.54429755 128.68846573 407.27050344 126 410 C127.56282982 413.76603869 129.9063475 416.13639151 132.7890625 418.984375 C133.25234955 419.44483215 133.7156366 419.90528931 134.19296265 420.37969971 C135.66565898 421.84125078 137.14517403 423.29567168 138.625 424.75 C139.62806322 425.74302611 140.63067257 426.73651089 141.6328125 427.73046875 C144.08330835 430.15897941 146.5399667 432.58114675 149 435 C152.76603869 433.43717018 155.13639151 431.0936525 157.984375 428.2109375 C158.44483215 427.74765045 158.90528931 427.2843634 159.37969971 426.80703735 C160.84125078 425.33434102 162.29567168 423.85482597 163.75 422.375 C164.74302611 421.37193678 165.73651089 420.36932743 166.73046875 419.3671875 C169.15897941 416.91669165 171.58114675 414.4600333 174 412 C172.43904931 408.26193389 170.12570854 405.86757459 167.28125 403.015625 C166.34925781 402.08105469 165.41726562 401.14648438 164.45703125 400.18359375 C163.97186035 399.7026123 163.48668945 399.22163086 162.98681641 398.72607422 C161.49793661 397.24795152 160.02008349 395.75940089 158.54296875 394.26953125 C157.61097656 393.34011719 156.67898437 392.41070312 155.71875 391.453125 C154.43387695 390.17163574 154.43387695 390.17163574 153.12304688 388.86425781 C150.08853053 386.19963421 149.66232162 386.40198817 146.66162109 389.11132812 Z M213.77514648 389.11132812 C212.80456006 390.08207377 211.83674224 391.05559221 210.87109375 392.03125 C210.36199966 392.54175903 209.85290558 393.05226807 209.3283844 393.57824707 C207.69573898 395.21651005 206.06659618 396.85820832 204.4375 398.5 C203.33421259 399.60830015 202.23069993 400.71637611 201.12695312 401.82421875 C198.41534381 404.54688036 195.70687186 407.2726287 193 410 C194.56282982 413.76603869 196.9063475 416.13639151 199.7890625 418.984375 C200.25234955 419.44483215 200.7156366 419.90528931 201.19296265 420.37969971 C202.66565898 421.84125078 204.14517403 423.29567168 205.625 424.75 C206.62806322 425.74302611 207.63067257 426.73651089 208.6328125 427.73046875 C211.08330835 430.15897941 213.5399667 432.58114675 216 435 C219.76603869 433.43717018 222.13639151 431.0936525 224.984375 428.2109375 C225.44483215 427.74765045 225.90528931 427.2843634 226.37969971 426.80703735 C227.84125078 425.33434102 229.29567168 423.85482597 230.75 422.375 C231.74302611 421.37193678 232.73651089 420.36932743 233.73046875 419.3671875 C236.15897941 416.91669165 238.58114675 414.4600333 241 412 C236.18825126 406.20879999 231.02258518 400.87191517 225.6875 395.5625 C224.86443359 394.73556641 224.04136719 393.90863281 223.19335938 393.05664062 C222.41154297 392.27611328 221.62972656 391.49558594 220.82421875 390.69140625 C220.11354248 389.98185791 219.40286621 389.27230957 218.6706543 388.54125977 C216.13470437 386.20172274 216.41439618 386.6067488 213.77514648 389.11132812 Z M281.68334961 389.203125 C280.67044564 390.21618822 279.66031084 391.23202462 278.65234375 392.25 C278.12105362 392.78270508 277.58976349 393.31541016 277.04237366 393.86425781 C275.33839927 395.5738501 273.63792595 397.28687894 271.9375 399 C270.78603547 400.15647723 269.63434572 401.31273028 268.48242188 402.46875 C265.65232375 405.30990086 262.82536181 408.15413941 260 411 C264.67466337 416.62303757 269.67765667 421.79741554 274.875 426.9375 C275.65875 427.71673828 276.4425 428.49597656 277.25 429.29882812 C279.16438581 431.20154085 281.08108034 433.10186171 283 435 C286.76603869 433.43717018 289.13639151 431.0936525 291.984375 428.2109375 C292.44483215 427.74765045 292.90528931 427.2843634 293.37969971 426.80703735 C294.84125078 425.33434102 296.29567168 423.85482597 297.75 422.375 C298.74302611 421.37193678 299.73651089 420.36932743 300.73046875 419.3671875 C303.15897941 416.91669165 305.58114675 414.4600333 308 412 C306.43809102 408.24794633 304.10972261 405.8656188 301.24609375 403.015625 C300.78517838 402.55516785 300.324263 402.09471069 299.84938049 401.62030029 C298.87924882 400.65317817 297.90669939 399.68847596 296.93188477 398.72607422 C295.43377195 397.24631763 293.9439157 395.75861398 292.45507812 394.26953125 C287.50706844 387.68755055 287.50706844 387.68755055 281.68334961 389.203125 Z M351 387 C343.08 394.92 335.16 402.84 327 411 C331.59180446 416.41969335 331.59180446 416.41969335 336.4296875 421.52734375 C336.996875 422.09130859 337.5640625 422.65527344 338.1484375 423.23632812 C339.00308594 424.0784082 339.00308594 424.0784082 339.875 424.9375 C340.76445312 425.82018555 340.76445312 425.82018555 341.671875 426.72070312 C343.11226466 428.14947674 344.5557967 429.57508132 346 431 C349.04153442 427.95846558 348.93343065 424.16175453 349.5078125 420.0546875 C349.63815887 419.1696756 349.76850525 418.2846637 349.90280151 417.37283325 C350.31800371 414.54129602 350.72162135 411.70824337 351.125 408.875 C351.4041875 406.95692041 351.68412594 405.03894997 351.96484375 403.12109375 C352.6519546 398.41528546 353.32867939 393.70808575 354 389 C353.01 388.34 352.02 387.68 351 387 Z M180.68334961 422.203125 C179.67044564 423.21618822 178.66031084 424.23202462 177.65234375 425.25 C177.12105362 425.78270508 176.58976349 426.31541016 176.04237366 426.86425781 C174.33839927 428.5738501 172.63792595 430.28687894 170.9375 432 C169.78603547 433.15647723 168.63434572 434.31273028 167.48242188 435.46875 C164.65232375 438.30990086 161.82536181 441.15413941 159 444 C163.81867247 449.80891746 169.01256408 455.13065552 174.375 460.4375 C175.20644531 461.26443359 176.03789062 462.09136719 176.89453125 462.94335938 C178.9274104 464.96455531 180.96259963 466.98336335 183 469 C188.80891746 464.18132753 194.13065552 458.98743592 199.4375 453.625 C200.26443359 452.79355469 201.09136719 451.96210938 201.94335938 451.10546875 C203.96455531 449.0725896 205.98336335 447.03740037 208 445 C203.18825126 439.20879999 198.02258518 433.87191517 192.6875 428.5625 C191.86443359 427.73556641 191.04136719 426.90863281 190.19335938 426.05664062 C189.41154297 425.27611328 188.62972656 424.49558594 187.82421875 423.69140625 C187.11354248 422.98185791 186.40286621 422.27230957 185.6706543 421.54125977 C183.09170215 419.1620511 183.38835986 419.63067137 180.68334961 422.203125 Z M112.66162109 423.11132812 C111.69374789 424.07951895 110.73138406 425.0532365 109.7734375 426.03125 C109.01191879 426.79701355 109.01191879 426.79701355 108.23501587 427.57824707 C106.61027165 429.21421065 104.9926076 430.85698244 103.375 432.5 C102.27650012 433.60852741 101.17754745 434.71660632 100.078125 435.82421875 C97.38012982 438.54429755 94.68846573 441.27050344 92 444 C96.81867247 449.80891746 102.01256408 455.13065552 107.375 460.4375 C108.20644531 461.26443359 109.03789062 462.09136719 109.89453125 462.94335938 C111.9274104 464.96455531 113.96259963 466.98336335 116 469 C121.62303757 464.32533663 126.79741554 459.32234333 131.9375 454.125 C132.71673828 453.34125 133.49597656 452.5575 134.29882812 451.75 C136.20154085 449.83561419 138.10186171 447.91891966 140 446 C138.43904931 442.26193389 136.12570854 439.86757459 133.28125 437.015625 C132.34925781 436.08105469 131.41726562 435.14648438 130.45703125 434.18359375 C129.97186035 433.7026123 129.48668945 433.22163086 128.98681641 432.72607422 C127.49793661 431.24795152 126.02008349 429.75940089 124.54296875 428.26953125 C123.61097656 427.34011719 122.67898437 426.41070312 121.71875 425.453125 C120.43387695 424.17163574 120.43387695 424.17163574 119.12304688 422.86425781 C116.08853053 420.19963421 115.66232162 420.40198817 112.66162109 423.11132812 Z M247.77514648 423.11132812 C246.80456006 424.08207377 245.83674224 425.05559221 244.87109375 426.03125 C244.36199966 426.54175903 243.85290558 427.05226807 243.3283844 427.57824707 C241.69573898 429.21651005 240.06659618 430.85820832 238.4375 432.5 C237.33421259 433.60830015 236.23069993 434.71637611 235.12695312 435.82421875 C232.41534381 438.54688036 229.70687186 441.2726287 227 444 C228.56282982 447.76603869 230.9063475 450.13639151 233.7890625 452.984375 C234.25234955 453.44483215 234.7156366 453.90528931 235.19296265 454.37969971 C236.66565898 455.84125078 238.14517403 457.29567168 239.625 458.75 C240.62806322 459.74302611 241.63067257 460.73651089 242.6328125 461.73046875 C245.08330835 464.15897941 247.5399667 466.58114675 250 469 C255.62303757 464.32533663 260.79741554 459.32234333 265.9375 454.125 C266.71673828 453.34125 267.49597656 452.5575 268.29882812 451.75 C270.20154085 449.83561419 272.10186171 447.91891966 274 446 C272.43809102 442.24794633 270.10972261 439.8656188 267.24609375 437.015625 C266.78517838 436.55516785 266.324263 436.09471069 265.84938049 435.62030029 C264.87924882 434.65317817 263.90669939 433.68847596 262.93188477 432.72607422 C261.43377195 431.24631763 259.9439157 429.75861398 258.45507812 428.26953125 C253.56024142 421.7531475 253.56024142 421.7531475 247.77514648 423.11132812 Z M314.66162109 423.11132812 C313.69374789 424.07951895 312.73138406 425.0532365 311.7734375 426.03125 C311.01191879 426.79701355 311.01191879 426.79701355 310.23501587 427.57824707 C308.61027165 429.21421065 306.9926076 430.85698244 305.375 432.5 C304.27650012 433.60852741 303.17754745 434.71660632 302.078125 435.82421875 C299.38012982 438.54429755 296.68846573 441.27050344 294 444 C295.56282982 447.76603869 297.9063475 450.13639151 300.7890625 452.984375 C301.25234955 453.44483215 301.7156366 453.90528931 302.19296265 454.37969971 C303.66565898 455.84125078 305.14517403 457.29567168 306.625 458.75 C307.62806322 459.74302611 308.63067257 460.73651089 309.6328125 461.73046875 C312.08330835 464.15897941 314.5399667 466.58114675 317 469 C322.80891746 464.18132753 328.13065552 458.98743592 333.4375 453.625 C334.26443359 452.79355469 335.09136719 451.96210938 335.94335938 451.10546875 C337.96455531 449.0725896 339.98336335 447.03740037 342 445 C337.33992095 439.41235744 332.39136454 434.20827395 327.25 429.0625 C326.48300781 428.28326172 325.71601563 427.50402344 324.92578125 426.70117188 C324.19230469 425.96576172 323.45882813 425.23035156 322.703125 424.47265625 C322.03958008 423.80500244 321.37603516 423.13734863 320.69238281 422.44946289 C317.93166632 420.08501196 317.32907353 420.70287869 314.66162109 423.11132812 Z M149 454 C141.41 461.59 133.82 469.18 126 477 C127.81740494 480.63480988 129.10659789 483.1882243 132 486 C134.80227645 486.53486636 136.99647133 486.74929705 139.80078125 486.734375 C140.55538132 486.74390198 141.30998138 486.75342896 142.08744812 486.76324463 C143.68186911 486.77538993 145.27643431 486.77458861 146.87084961 486.76171875 C149.29605714 486.75007892 151.71423098 486.80217269 154.13867188 486.859375 C162.22701614 487.0895931 162.22701614 487.0895931 169.66552734 484.38867188 C171.3820305 482.6760571 172.74859654 481.07077877 174 479 C172.56755544 475.73468166 170.80730732 473.55021705 168.296875 471.03125 C167.19666016 469.92716797 167.19666016 469.92716797 166.07421875 468.80078125 C165.30722656 468.04152344 164.54023438 467.28226562 163.75 466.5 C162.99847656 465.74074219 162.24695313 464.98148437 161.47265625 464.19921875 C160.73402344 463.46316406 159.99539062 462.72710937 159.234375 461.96875 C158.56631836 461.30294922 157.89826172 460.63714844 157.20996094 459.95117188 C154.50787207 457.4771006 154.50787207 457.4771006 149 454 Z M214.68334961 456.203125 C213.67044564 457.21618822 212.66031084 458.23202462 211.65234375 459.25 C211.12105362 459.78270508 210.58976349 460.31541016 210.04237366 460.86425781 C208.33839927 462.5738501 206.63792595 464.28687894 204.9375 466 C203.78603547 467.15647723 202.63434572 468.31273028 201.48242188 469.46875 C198.65232375 472.30990086 195.82536181 475.15413941 193 478 C193.97866338 479.14626322 194.95794587 480.29199788 195.9375 481.4375 C196.48277344 482.07558594 197.02804688 482.71367187 197.58984375 483.37109375 C198.36795695 484.26991149 199.15936528 485.15936528 200 486 C204.7347198 486.34046758 209.47161601 486.39972931 214.21728516 486.45996094 C215.81199318 486.48648011 217.40653262 486.52730946 219.00048828 486.58300781 C228.17523278 487.17856918 228.17523278 487.17856918 236.64746094 484.40625 C238.36613867 482.6884381 239.74010125 481.07198204 241 479 C239.43809102 475.24794633 237.10972261 472.8656188 234.24609375 470.015625 C233.78517838 469.55516785 233.324263 469.09471069 232.84938049 468.62030029 C231.87924882 467.65317817 230.90669939 466.68847596 229.93188477 465.72607422 C228.43377195 464.24631763 226.9439157 462.75861398 225.45507812 461.26953125 C220.50706844 454.68755055 220.50706844 454.68755055 214.68334961 456.203125 Z M280.66162109 457.11132812 C279.69374789 458.07951895 278.73138406 459.0532365 277.7734375 460.03125 C277.01191879 460.79701355 277.01191879 460.79701355 276.23501587 461.57824707 C274.61027165 463.21421065 272.9926076 464.85698244 271.375 466.5 C270.27650012 467.60852741 269.17754745 468.71660632 268.078125 469.82421875 C265.38012982 472.54429755 262.68846573 475.27050344 260 478 C260.97866338 479.14626322 261.95794587 480.29199788 262.9375 481.4375 C263.48277344 482.07558594 264.02804687 482.71367187 264.58984375 483.37109375 C265.36795695 484.26991149 266.15936528 485.15936528 267 486 C271.7347198 486.34046758 276.47161601 486.39972931 281.21728516 486.45996094 C282.81199318 486.48648011 284.40653262 486.52730946 286.00048828 486.58300781 C295.17523278 487.17856918 295.17523278 487.17856918 303.64746094 484.40625 C305.36613867 482.6884381 306.74010125 481.07198204 308 479 C303.33992095 473.41235744 298.39136454 468.20827395 293.25 463.0625 C292.48300781 462.28326172 291.71601563 461.50402344 290.92578125 460.70117188 C290.19230469 459.96576172 289.45882813 459.23035156 288.703125 458.47265625 C288.03958008 457.80500244 287.37603516 457.13734863 286.69238281 456.44946289 C283.93166632 454.08501196 283.32907353 454.70287869 280.66162109 457.11132812 Z M92 464 C92.31094086 466.54186606 92.62370536 469.08348598 92.9375 471.625 C93.02451172 472.33785156 93.11152344 473.05070312 93.20117188 473.78515625 C93.70782605 477.87591961 94.2889043 481.93842635 95 486 C97.19914497 486.59197613 97.19914497 486.59197613 100 486 C102.57260172 483.87919817 104.79254499 481.49372439 107 479 C102.60831493 473.72997792 98.0573621 468.64697949 93 464 C92.67 464 92.34 464 92 464 Z M341 464 C336.38 468.62 331.76 473.24 327 478 C330.4002265 482.09239337 330.4002265 482.09239337 334 486 C335.66617115 486.04063832 337.33388095 486.042721 339 486 C339.53084792 483.08483516 340.04999055 480.16839443 340.5625 477.25 C340.71396484 476.425 340.86542969 475.6 341.02148438 474.75 C341.16005859 473.95078125 341.29863281 473.1515625 341.44140625 472.328125 C341.57232666 471.5949707 341.70324707 470.86181641 341.83813477 470.10644531 C342.138049 467.65643175 342.138049 467.65643175 341 464 Z " fill="#D9D8D7" transform="translate(39,0)"/>
</svg>
