<?xml version="1.0" encoding="UTF-8"?>
<svg version="1.1" xmlns="http://www.w3.org/2000/svg" width="512" height="512">
<path d="M0 0 C9.7525904 8.02561778 18.58457195 17.3354063 27.52929688 26.23413086 C29.09941141 27.79264276 30.67400379 29.34665578 32.25292969 30.89624023 C34.57183125 33.172279 36.87701313 35.46146481 39.1796875 37.75390625 C39.87665741 38.43336807 40.57362732 39.1128299 41.29171753 39.81288147 C49.8629699 48.42203895 55.40543263 57.77627441 55.4375 70.125 C55.36460633 90.62579185 39.75561441 102.39418971 26.29109192 115.84262085 C24.80246342 117.33312003 23.31405057 118.82383461 21.8258335 120.31474459 C17.75542842 124.39124165 13.68193027 128.46463532 9.60788739 132.53749633 C5.20733731 136.93784175 0.80965385 141.34105053 -3.58842468 145.74386597 C-12.19570038 154.359433 -20.80573154 162.9722399 -29.41688105 171.58393471 C-36.41390312 178.58141698 -43.41012388 185.57969946 -50.40578651 192.5785408 C-52.42206747 194.59571933 -54.43835231 196.61289398 -56.4546383 198.63006747 C-57.20656727 199.382328 -57.20656727 199.382328 -57.97368672 200.14978572 C-72.06193394 214.24418189 -86.15127939 228.33747945 -100.2428236 242.42857933 C-101.03884996 243.22458232 -101.03884996 243.22458232 -101.85095766 244.03666618 C-104.54050428 246.7261297 -107.23005888 249.41558525 -109.91961523 252.10503905 C-110.72081029 252.90620418 -110.72081029 252.90620418 -111.5381911 253.72355448 C-112.61832804 254.80365097 -113.69846565 255.88374679 -114.77860395 256.96384193 C-131.600525 273.78514962 -148.41837406 290.61051923 -165.2331543 307.43896484 C-184.13481136 326.35597706 -203.03983693 345.26961417 -221.94963819 364.17848551 C-223.96499065 366.19376334 -225.98033015 368.20905413 -227.99566078 370.22435379 C-228.49187191 370.72055327 -228.98808305 371.21675274 -229.49933088 371.72798857 C-237.48649992 379.71512683 -245.4704557 387.70546962 -253.45330237 395.69692765 C-261.47036269 403.72245756 -269.49123452 411.74415966 -277.51573535 419.7622513 C-281.8632727 424.10651511 -286.20916649 428.45239075 -290.5507431 432.8026123 C-294.52297167 436.78266923 -298.49976442 440.75810488 -302.48028413 444.7298692 C-303.92129539 446.16933744 -305.36061015 447.61050635 -306.79807296 449.0535181 C-308.74900738 451.01148551 -310.70598014 452.96321279 -312.66459942 454.91348839 C-313.22382907 455.47768622 -313.78305872 456.04188405 -314.35923472 456.62317878 C-318.64931968 460.87460464 -323.11614118 464.55150183 -328.87811279 466.62867737 C-329.58849323 466.88839545 -330.29887367 467.14811354 -331.03078079 467.41570187 C-331.7924493 467.68401097 -332.55411781 467.95232008 -333.33886719 468.22875977 C-334.16165539 468.52496247 -334.98444359 468.82116518 -335.83216476 469.12634373 C-346.69699145 473.00966173 -357.63795737 476.67565121 -368.578125 480.33984375 C-369.71038261 480.71956392 -370.84264023 481.0992841 -372.00920868 481.49051094 C-377.97491603 483.49090793 -383.94178978 485.48777862 -389.90966797 487.48168945 C-396.05579538 489.53596601 -402.19761703 491.6028242 -408.3386116 493.67238522 C-413.08891571 495.27072142 -417.84230168 496.85972971 -422.59658051 498.44619942 C-424.86393178 499.20461114 -427.13010919 499.96654189 -429.39505768 500.73209953 C-432.54954593 501.79738034 -435.70817908 502.84934973 -438.86816406 503.89819336 C-439.79497482 504.21447189 -440.72178558 504.53075043 -441.67668152 504.85661316 C-446.64680176 506.48937223 -450.76150867 507.45846213 -456 507 C-457 506 -457 506 -457.28129578 503.14851379 C-457.18901843 497.70097915 -455.23084448 492.73450057 -453.49926758 487.6237793 C-452.9407309 485.93458878 -452.9407309 485.93458878 -452.37091064 484.21127319 C-451.35153985 481.13612571 -450.32286134 478.06429696 -449.28942323 474.99385428 C-448.20537476 471.76699144 -447.13212288 468.53653849 -446.05729675 465.30659485 C-444.2495398 459.8797434 -442.43338242 454.45576008 -440.61206055 449.03344727 C-438.51438511 442.78809309 -436.42942738 436.5386075 -434.35145265 430.28667325 C-432.34449812 424.24925568 -430.32898957 418.21472758 -428.30948448 412.18149757 C-427.45408627 409.62563456 -426.60152178 407.06885327 -425.75129128 404.51126671 C-424.55745697 400.92646213 -423.35389198 397.34506848 -422.14770508 393.7644043 C-421.80100266 392.71731796 -421.45430023 391.67023163 -421.09709167 390.59141541 C-414.8044032 372.03245796 -402.88264474 360.73274803 -389.32473755 347.1708374 C-387.83967888 345.68175695 -386.3548293 344.19246797 -384.87016952 342.70298982 C-380.80942205 338.63035265 -376.74558587 334.56081012 -372.68118262 330.49182177 C-368.29081652 326.09547125 -363.90326264 321.69631547 -359.51525879 317.29760742 C-348.93287174 306.69077238 -338.34560384 296.08881716 -327.7574504 285.48773897 C-324.76619504 282.49280807 -321.77510316 279.49771394 -318.7840476 276.5025835 C-300.19745058 257.8907333 -281.60924375 239.28049242 -263.01623726 220.67504501 C-258.71636749 216.37225427 -254.41652105 212.06944021 -250.11669922 207.76660156 C-249.58254018 207.23207161 -249.04838113 206.69754166 -248.49803545 206.14681383 C-231.16635605 188.80296981 -213.84410325 171.44974982 -196.52718631 154.09116713 C-178.7064961 136.22767752 -160.87772734 118.37229322 -143.03824067 100.52757371 C-140.51832948 98.00692212 -137.99850344 95.48618542 -135.47872543 92.9654007 C-134.73491441 92.22130375 -134.73491441 92.22130375 -133.9760769 91.46217454 C-126.00437455 83.48696212 -118.04108913 75.50339647 -110.0808578 67.51673642 C-102.08041511 59.49013242 -94.07058386 51.47301174 -86.05177154 43.46475145 C-81.70989833 39.12806742 -77.3721747 34.78743611 -73.04528427 30.43579865 C-69.0823081 26.45034621 -65.1079117 22.47666187 -61.12421034 18.51192859 C-59.68721566 17.07773593 -58.25441602 15.6393247 -56.82634296 14.19624826 C-41.14450018 -1.64019224 -21.63430329 -13.13726003 0 0 Z " fill="#FEDC64" transform="translate(457,5)"/>
<path d="M0 0 C1.41798401 1.43798828 1.41798401 1.43798828 3.07641602 3.4453125 C7.08771695 8.15942085 11.38777209 12.51472969 15.77734375 16.875 C16.99436729 18.08990112 16.99436729 18.08990112 18.23597717 19.3293457 C20.80079139 21.88861015 23.36907948 24.4443553 25.9375 27 C27.68838283 28.74586133 29.43903613 30.49195287 31.18945312 32.23828125 C35.45698616 36.49485198 39.72736866 40.74854716 44 45 C42.41996755 48.81829957 40.01195671 51.24183356 37.11110115 54.14896107 C36.35473416 54.91103656 36.35473416 54.91103656 35.58308703 55.68850753 C33.88450251 57.3974358 32.17885932 59.09913968 30.47317505 60.80097961 C29.244689 62.0339165 28.01663502 63.26728402 26.7889775 64.50104588 C23.408081 67.89615042 20.02092075 71.2849454 16.63269401 74.67273247 C12.98217267 78.32489946 9.33736878 81.98276488 5.69177246 85.6398468 C-2.28200045 93.63648482 -10.26324599 101.62563693 -18.24593115 109.61337686 C-23.22657443 114.59727425 -28.20558253 119.58280295 -33.18423843 124.56868553 C-46.95956851 138.36358054 -60.73647634 152.1568942 -74.52013969 165.94346333 C-75.40241136 166.82592256 -76.28468302 167.70838179 -77.19369019 168.61758221 C-78.98237617 170.40663446 -80.77106344 172.19568542 -82.55975197 173.98473511 C-83.44769495 174.8728609 -84.33563794 175.76098669 -85.25048828 176.67602539 C-86.13951124 177.5652289 -87.0285342 178.4544324 -87.94449724 179.37058147 C-102.36512449 193.79475404 -116.77396454 208.23063933 -131.17767142 222.67170642 C-145.95345322 237.48550777 -160.73851324 252.28999387 -175.53316605 267.0849492 C-183.84477776 275.39714677 -192.15235009 283.7132948 -200.44982529 292.03960609 C-207.51168521 299.12589459 -214.58198582 306.20362102 -221.66361867 313.27015195 C-225.27953404 316.87886441 -228.89120959 320.49157656 -232.49222183 324.11516571 C-235.78411154 327.427497 -239.08716469 330.72823786 -242.39977457 334.0198436 C-243.60065937 335.21720502 -244.79726886 336.41887167 -245.989287 337.62506048 C-247.60147059 339.25517856 -249.22805021 340.86936144 -250.85941887 342.48024464 C-252.21339423 343.83544168 -252.21339423 343.83544168 -253.59472263 345.21801645 C-256 347 -256 347 -258.1891948 346.89202851 C-260.73761943 345.63663813 -262.4017601 343.95645966 -264.40136719 341.93920898 C-265.2619574 341.07839218 -266.12254761 340.21757538 -267.00921631 339.33067322 C-268.38910736 337.92755638 -268.38910736 337.92755638 -269.796875 336.49609375 C-270.7545722 335.53279924 -271.71293547 334.57016651 -272.67193604 333.60816956 C-275.19059231 331.07807517 -277.70010838 328.53910072 -280.20782471 325.99816895 C-282.76980732 323.40546323 -285.34033501 320.82126044 -287.91015625 318.23632812 C-292.94849841 313.1658401 -297.97723334 308.0859212 -303 303 C-301.41850353 299.17268388 -298.99927368 296.74863359 -296.08989716 293.83821487 C-295.58336493 293.32877577 -295.0768327 292.81933666 -294.55495101 292.29446 C-292.84860516 290.58078866 -291.13519515 288.87435945 -289.42175293 287.16778564 C-288.18771238 285.93144169 -286.95410833 284.69466192 -285.72090483 283.45748305 C-282.32472008 280.05292545 -278.92229616 276.65466294 -275.51883292 273.25738358 C-271.85195205 269.59501593 -268.19081609 265.92691317 -264.52894592 262.25953674 C-257.35253193 255.07421554 -250.17070427 247.89432886 -242.9869405 240.71635661 C-237.15143041 234.88535708 -231.3178678 229.05241593 -225.48570251 223.21807098 C-224.65671793 222.38877993 -223.82773334 221.55948888 -222.97362801 220.7050678 C-221.28977506 219.02057542 -219.6059266 217.33607854 -217.9220826 215.6515772 C-202.12208683 199.84587443 -186.31595946 184.04631483 -170.50774115 168.24883649 C-156.92958126 154.67961574 -143.35667847 141.10515499 -129.78759766 127.52685547 C-114.04484294 111.77341034 -98.29886506 96.02319853 -82.54768991 80.27817225 C-80.86988823 78.6010077 -79.19209074 76.92383895 -77.51429749 75.24666595 C-76.68869992 74.42137694 -75.86310234 73.59608792 -75.01248667 72.74579014 C-69.1811125 66.91614636 -63.35206968 61.08417767 -57.52391052 55.25131989 C-50.4275636 48.14937791 -43.32769337 41.05098138 -36.22320879 33.95717964 C-32.59519341 30.33443907 -28.96882993 26.71008358 -25.34674263 23.08141518 C-22.03626848 19.76501688 -18.72127761 16.45320681 -15.40249544 13.14512309 C-14.197548 11.94242475 -12.99431451 10.7380065 -11.79290146 9.53177753 C-10.16983661 7.90270246 -8.5408453 6.27980453 -6.91010284 4.65842056 C-6.0036554 3.75229782 -5.09720796 2.84617508 -4.16329241 1.91259408 C-2 0 -2 0 0 0 Z " fill="#FEC850" transform="translate(353,69)"/>
<path d="M0 0 C9.7525904 8.02561778 18.58457195 17.3354063 27.52929688 26.23413086 C29.09941141 27.79264276 30.67400379 29.34665578 32.25292969 30.89624023 C34.57183125 33.172279 36.87701313 35.46146481 39.1796875 37.75390625 C39.87665741 38.43336807 40.57362732 39.1128299 41.29171753 39.81288147 C49.8629699 48.42203895 55.40543263 57.77627441 55.4375 70.125 C55.37403373 87.97440786 44.28743736 97.86571861 32.38867188 109.69921875 C31.40500512 110.67453686 30.4212805 111.64979662 29.4375 112.625 C28.41838246 113.63908446 27.39950101 114.65340625 26.38085938 115.66796875 C23.92327588 118.11470835 21.46255754 120.55826544 19 123 C15.79177828 121.58607352 13.64749941 119.89506369 11.17816162 117.41867065 C10.43221741 116.67547577 9.68627319 115.93228088 8.91772461 115.16656494 C7.70499878 113.94305328 7.70499878 113.94305328 6.46777344 112.69482422 C5.17942596 111.40691483 5.17942596 111.40691483 3.86505127 110.09298706 C1.51460664 107.74138856 -0.83131459 105.38544268 -3.17533588 103.02745199 C-5.627448 100.56283009 -8.08523207 98.10387775 -10.54241943 95.64431763 C-15.1928819 90.98764113 -19.83822297 86.32589026 -24.48174453 81.66229355 C-29.76919919 76.35247752 -35.06233984 71.0483452 -40.35596514 65.74468207 C-51.24364811 54.83609884 -62.12417051 43.92040194 -73 33 C-71.12028986 28.93011697 -68.41064925 26.07026685 -65.28515625 22.9140625 C-64.71478134 22.33465912 -64.14440643 21.75525574 -63.55674744 21.15829468 C-62.34648441 19.93354075 -61.13340424 18.71156514 -59.91772461 17.4921875 C-58.08770453 15.65036705 -56.27721106 13.79075473 -54.46679688 11.9296875 C-39.53715117 -3.20769412 -20.04766725 -12.1737878 0 0 Z " fill="#D23D6A" transform="translate(457,5)"/>
<path d="M0 0 C7.875 6.75 7.875 6.75 11.06871033 9.94845581 C11.79353607 10.67190689 12.51836182 11.39535797 13.26515198 12.14073181 C14.03479782 12.91397293 14.80444366 13.68721405 15.59741211 14.48388672 C16.42748779 15.31381638 17.25756348 16.14374603 18.11279297 16.99882507 C20.83668894 19.72341379 23.55703263 22.45151995 26.27734375 25.1796875 C28.17284179 27.07705199 30.06853607 28.97421834 31.9644928 30.87112427 C36.43222586 35.34195434 40.89740564 39.81532534 45.36165386 44.28963482 C50.44799929 49.38719227 55.53721486 54.48188019 60.62666309 59.57633948 C71.08761876 70.04772258 81.54499952 80.52267093 92 91 C91.06518608 92.10146846 90.12878502 93.20159002 89.19174194 94.30116272 C88.67045904 94.91394105 88.14917614 95.52671938 87.61209679 96.15806675 C85.10665047 99.02071428 82.42840608 101.69518224 79.7265625 104.37109375 C79.15795502 104.93828629 78.58934753 105.50547882 78.00350952 106.08985901 C76.21303764 107.87479913 74.41909516 109.65620256 72.625 111.4375 C71.39950677 112.65796939 70.17424428 113.87867053 68.94921875 115.09960938 C65.96880226 118.06908756 62.98527106 121.03540257 60 124 C59.3473114 123.3466568 58.6946228 122.6933136 58.02215576 122.02017212 C54.23551501 118.23360381 50.43979193 114.45615228 46.64550781 110.67724609 C38.22374993 102.28815708 29.80703852 93.89402249 21.39328384 85.49690819 C16.30378705 80.41774998 11.2124077 75.340505 6.11669922 70.26757812 C1.66023869 65.83103035 -2.79271348 61.39099645 -7.24146199 56.946715 C-9.59356155 54.59722313 -11.94790831 52.25005743 -14.30544281 49.9060173 C-16.92929793 47.29660136 -19.54690734 44.6810739 -22.16308594 42.06396484 C-22.94644821 41.28779312 -23.72981049 40.5116214 -24.53691101 39.71192932 C-25.24626297 38.99982803 -25.95561493 38.28772675 -26.6864624 37.55404663 C-27.30586575 36.93648687 -27.92526909 36.31892712 -28.56344223 35.68265343 C-30 34 -30 34 -31 31 C-20.77 20.77 -10.54 10.54 0 0 Z " fill="#AFB9D1" transform="translate(383,37)"/>
<path d="M0 0 C5.71700538 4.75136274 10.97689423 9.84614587 16.21484375 15.1171875 C17.07058487 15.97434357 17.92632599 16.83149963 18.80799866 17.71463013 C21.52020465 20.43239954 24.2288983 23.15363891 26.9375 25.875 C28.78427369 27.72679342 30.63127653 29.57835834 32.47851562 31.4296875 C36.98833201 35.95048435 41.49527569 40.47412946 46 45 C43.79905117 49.03021697 41.22759333 52.01550589 37.9777832 55.24926758 C37.47991302 55.74742981 36.98204285 56.24559204 36.46908569 56.7588501 C34.83435007 58.39220058 33.19266191 60.01836599 31.55078125 61.64453125 C30.41119971 62.78037976 29.27206108 63.91667279 28.13334656 65.0533905 C25.14408399 68.03503946 22.14886287 71.01063161 19.15234375 73.98498535 C16.09206832 77.02475337 13.03749021 80.07023468 9.98242188 83.11523438 C3.99382991 89.08241652 -2.00107154 95.04320952 -8 101 C-6.42411996 104.3247945 -4.7182851 106.51631617 -2.0859375 109.109375 C-1.32539062 109.86347656 -0.56484375 110.61757813 0.21875 111.39453125 C1.0128125 112.17183594 1.806875 112.94914062 2.625 113.75 C3.82769531 114.93916016 3.82769531 114.93916016 5.0546875 116.15234375 C7.03202846 118.10614493 9.01388909 120.05512103 11 122 C9.61094963 124.77810075 8.2312188 124.80480995 5.31591797 125.78759766 C3.8183345 126.29790024 3.8183345 126.29790024 2.29049683 126.81851196 C1.20205475 127.18004364 0.11361267 127.54157532 -1.0078125 127.9140625 C-2.67878494 128.4758168 -2.67878494 128.4758168 -4.3835144 129.04891968 C-6.74789287 129.84111015 -9.11358912 130.62937651 -11.48046875 131.4140625 C-15.09311608 132.6144062 -18.6989732 133.83369966 -22.3046875 135.0546875 C-24.60117347 135.82147861 -26.89803698 136.58714012 -29.1953125 137.3515625 C-30.27160919 137.71714264 -31.34790588 138.08272278 -32.45681763 138.4593811 C-37.81074354 140.21663907 -42.35175403 141.58093455 -48 141 C-49 140 -49 140 -49.28129578 137.14851379 C-49.18901843 131.70097915 -47.23084448 126.73450057 -45.49926758 121.6237793 C-45.12690979 120.49765228 -44.754552 119.37152527 -44.37091064 118.21127319 C-43.35153985 115.13612571 -42.32286134 112.06429696 -41.28942323 108.99385428 C-40.20537476 105.76699144 -39.13212288 102.53653849 -38.05729675 99.30659485 C-36.2495398 93.8797434 -34.43338242 88.45576008 -32.61206055 83.03344727 C-30.51438511 76.78809309 -28.42942738 70.5386075 -26.35145265 64.28667325 C-24.34449812 58.24925568 -22.32898957 52.21472758 -20.30948448 46.18149757 C-19.45408627 43.62563456 -18.60152178 41.06885327 -17.75129128 38.51126671 C-16.55745697 34.92646213 -15.35389198 31.34506848 -14.14770508 27.7644043 C-13.80100266 26.71731796 -13.45430023 25.67023163 -13.09709167 24.59141541 C-10.0145185 15.50001597 -6.55813217 7.12025778 0 0 Z " fill="#F4DCB4" transform="translate(49,371)"/>
<path d="M0 0 C29.75603593 24.98420748 29.75603593 24.98420748 31.37109375 41.8828125 C31.76504812 55.36111479 28.87880331 64.1806366 19.62329102 74.23754883 C14.98362021 79.12334457 10.22230112 83.88191535 5.4375 88.625 C4.41838246 89.63908446 3.39950101 90.65340625 2.38085938 91.66796875 C-0.07672412 94.11470835 -2.53744246 96.55826544 -5 99 C-8.48972003 97.50469676 -10.73465395 95.50808338 -13.40136719 92.82568359 C-14.2619574 91.96494232 -15.12254761 91.10420105 -16.00921631 90.21737671 C-16.92914368 89.28712677 -17.84907104 88.35687683 -18.796875 87.3984375 C-19.75479097 86.43678914 -20.71315114 85.47558306 -21.67193604 84.51480103 C-24.18835125 81.99076718 -26.69870107 79.46078409 -29.20782471 76.92950439 C-31.77162441 74.3452081 -34.34112918 71.76659801 -36.91015625 69.1875 C-41.94569457 64.13054303 -46.9748456 59.06727744 -52 54 C-48.74856506 50.74563551 -45.49072494 47.49793639 -42.22558594 44.25732422 C-37.69583388 39.75944801 -33.17040753 35.25726458 -28.64818954 30.75181389 C-25.91944426 28.0335531 -23.1888364 25.31721638 -20.45410156 22.60498047 C-17.79854756 19.97112375 -15.14788044 17.33243971 -12.50055695 14.69031143 C-11.49277567 13.68622447 -10.48323616 12.68389901 -9.4719162 11.68337631 C-8.06226529 10.28820315 -6.65938374 8.88620034 -5.25683594 7.48388672 C-4.45695251 6.68844452 -3.65706909 5.89300232 -2.83294678 5.07345581 C-0.79678667 3.04270078 -0.79678667 3.04270078 0 0 Z " fill="#FE6A91" transform="translate(481,29)"/>
<path d="M0 0 C3.48972003 1.49530324 5.73465395 3.49191662 8.40136719 6.17431641 C9.2619574 7.03505768 10.12254761 7.89579895 11.00921631 8.78262329 C11.92914368 9.71287323 12.84907104 10.64312317 13.796875 11.6015625 C14.75479097 12.56321086 15.71315114 13.52441694 16.67193604 14.48519897 C19.18835125 17.00923282 21.69870107 19.53921591 24.20782471 22.07049561 C26.77162441 24.6547919 29.34112918 27.23340199 31.91015625 29.8125 C36.94569457 34.86945697 41.9748456 39.93272256 47 45 C41.58847674 50.56184335 37.21442924 53.52446448 29.90234375 56.12109375 C28.66628639 56.56756508 28.66628639 56.56756508 27.40525818 57.02305603 C16.97640732 60.76546318 6.49681454 64.36392768 -4.00317383 67.90112305 C-6.32172251 68.68518049 -8.63809235 69.47570658 -10.95239258 70.2722168 C-14.33726516 71.4367643 -17.72816085 72.58184014 -21.12109375 73.72265625 C-22.6740641 74.26298241 -22.6740641 74.26298241 -24.25840759 74.81422424 C-25.69755272 75.29108925 -25.69755272 75.29108925 -27.16577148 75.77758789 C-28.00559067 76.06291885 -28.84540985 76.34824982 -29.7106781 76.64222717 C-32.53985231 77.08436755 -33.63285916 76.54469567 -36 75 C-37.48846891 73.67197106 -38.92763208 72.28768746 -40.328125 70.8671875 C-41.12734375 70.06152344 -41.9265625 69.25585938 -42.75 68.42578125 C-43.575 67.58402344 -44.4 66.74226563 -45.25 65.875 C-46.09046875 65.02550781 -46.9309375 64.17601562 -47.796875 63.30078125 C-49.86915683 61.20495077 -51.93662393 59.10459287 -54 57 C-52.42406332 53.18387425 -50.02001091 50.78465455 -47.10717773 47.89599609 C-46.61105988 47.40119247 -46.11494202 46.90638885 -45.60379028 46.39659119 C-43.96827912 44.76755392 -42.32591245 43.14560891 -40.68359375 41.5234375 C-39.54490751 40.39102342 -38.40673606 39.25809148 -37.26905823 38.12466431 C-34.27669292 35.14558861 -31.2788083 32.17213492 -28.27929688 29.20025635 C-23.47340144 24.43752096 -18.67424876 19.66801435 -13.87828255 14.89528275 C-12.20046609 13.22770686 -10.51928819 11.56357496 -8.8377533 9.89974976 C-7.81286397 8.88168634 -6.78808284 7.86351399 -5.76342773 6.84521484 C-4.41679298 5.51095963 -4.41679298 5.51095963 -3.04295349 4.14974976 C-0.96431912 2.17194512 -0.96431912 2.17194512 0 0 Z " fill="#F9EAC7" transform="translate(94,417)"/>
<path d="M0 0 C7.875 6.75 7.875 6.75 11.37475586 10.26123047 C12.15503647 11.04158661 12.93531708 11.82194275 13.73924255 12.62594604 C14.55619095 13.44805573 15.37313934 14.27016541 16.21484375 15.1171875 C17.07058487 15.97434357 17.92632599 16.83149963 18.80799866 17.71463013 C21.52020465 20.43239954 24.2288983 23.15363891 26.9375 25.875 C28.78427369 27.72679342 30.63127653 29.57835834 32.47851562 31.4296875 C36.98833201 35.95048435 41.49527569 40.47412946 46 45 C42.16439367 49.58664344 38.19361444 53.94654556 33.9453125 58.15234375 C33.39890106 58.69734024 32.85248962 59.24233673 32.28952026 59.80384827 C30.57037942 61.51746118 28.84776796 63.22753444 27.125 64.9375 C25.94768362 66.10979204 24.77059826 67.28231614 23.59375 68.45507812 C20.73182511 71.30606982 17.86678543 74.15389615 15 77 C11.61788739 75.53307426 9.39964417 73.65265547 6.7980957 71.05688477 C5.98077469 70.24586807 5.16345367 69.43485138 4.32136536 68.59925842 C3.4483226 67.72216721 2.57527985 66.84507599 1.67578125 65.94140625 C0.77377487 65.04131332 -0.12823151 64.1412204 -1.05757141 63.21385193 C-2.96219576 61.31058824 -4.86466969 59.40543114 -6.76391602 57.49682617 C-9.19838888 55.05094299 -11.64175215 52.61416983 -14.08790874 50.17997837 C-16.42154066 47.85530834 -18.74754205 45.52303436 -21.07421875 43.19140625 C-21.9533342 42.31633926 -22.83244965 41.44127228 -23.73820496 40.53968811 C-24.95000175 39.31843483 -24.95000175 39.31843483 -26.1862793 38.07250977 C-26.90035446 37.35684341 -27.61442963 36.64117706 -28.35014343 35.90382385 C-30 34 -30 34 -31 31 C-20.77 20.77 -10.54 10.54 0 0 Z " fill="#969CB4" transform="translate(383,37)"/>
<path d="M0 0 C5.39190397 4.4978935 10.39391684 9.26126542 15.33984375 14.2421875 C16.10680069 15.01055939 16.87375763 15.77893127 17.66395569 16.57058716 C20.0908474 19.00303509 22.51422127 21.43895322 24.9375 23.875 C26.59156486 25.53408552 28.24585945 27.19294202 29.90039062 28.8515625 C33.93625433 32.89839709 37.96924277 36.94807953 42 41 C40.61094963 43.77810075 39.2312188 43.80480995 36.31591797 44.78759766 C34.8183345 45.29790024 34.8183345 45.29790024 33.29049683 45.81851196 C32.20205475 46.18004364 31.11361267 46.54157532 29.9921875 46.9140625 C28.32121506 47.4758168 28.32121506 47.4758168 26.6164856 48.04891968 C24.25210713 48.84111015 21.88641088 49.62937651 19.51953125 50.4140625 C15.90688392 51.6144062 12.3010268 52.83369966 8.6953125 54.0546875 C6.39882653 54.82147861 4.10196302 55.58714012 1.8046875 56.3515625 C0.72839081 56.71714264 -0.34790588 57.08272278 -1.45681763 57.4593811 C-6.81074354 59.21663907 -11.35175403 60.58093455 -17 60 C-18 59 -18 59 -18.29272461 56.17529297 C-18.20095141 50.57739411 -16.11223113 45.43737988 -14.31640625 40.1953125 C-13.94144516 39.07559052 -13.56648407 37.95586853 -13.18016052 36.80221558 C-12.38892108 34.44559508 -11.59267767 32.09064949 -10.79174805 29.73730469 C-9.56081033 26.12003468 -8.344528 22.49809647 -7.13085938 18.875 C-6.36021685 16.58565394 -5.58876103 14.29658146 -4.81640625 12.0078125 C-4.44971329 10.91937042 -4.08302032 9.83092834 -3.70521545 8.70950317 C-3.3649382 7.7111142 -3.02466095 6.71272522 -2.67407227 5.68408203 C-2.22439842 4.36006882 -2.22439842 4.36006882 -1.76564026 3.00930786 C-1 1 -1 1 0 0 Z " fill="#4A4A58" transform="translate(18,452)"/>
<path d="M0 0 C3.68458983 3.11772677 7.34675126 6.21672032 10.74609375 9.6484375 C11.35517578 10.26074219 11.96425781 10.87304688 12.59179688 11.50390625 C13.20087891 12.12136719 13.80996094 12.73882812 14.4375 13.375 C15.07365234 14.01566406 15.70980469 14.65632813 16.36523438 15.31640625 C17.91250332 16.87530879 19.45736492 18.43651416 21 20 C19.61094963 22.77810075 18.2312188 22.80480995 15.31591797 23.78759766 C13.8183345 24.29790024 13.8183345 24.29790024 12.29049683 24.81851196 C11.20205475 25.18004364 10.11361267 25.54157532 8.9921875 25.9140625 C7.87820587 26.28856537 6.76422424 26.66306824 5.6164856 27.04891968 C3.25210713 27.84111015 0.88641088 28.62937651 -1.48046875 29.4140625 C-5.09311608 30.6144062 -8.6989732 31.83369966 -12.3046875 33.0546875 C-14.60117347 33.82147861 -16.89803698 34.58714012 -19.1953125 35.3515625 C-20.27160919 35.71714264 -21.34790588 36.08272278 -22.45681763 36.4593811 C-27.83865954 38.22580162 -32.32774686 39.46825919 -38 39 C-38.33 38.34 -38.66 37.68 -39 37 C-38.33846924 36.66444092 -37.67693848 36.32888184 -36.99536133 35.9831543 C-32.83950117 33.23166256 -29.56410669 29.8095996 -26.07421875 26.26953125 C-25.32662796 25.51911057 -24.57903717 24.76868988 -23.80879211 23.99552917 C-21.43027929 21.60585247 -19.05882877 19.20930367 -16.6875 16.8125 C-15.07272703 15.18769236 -13.45749774 13.56333807 -11.84179688 11.93945312 C-7.88922799 7.96487416 -3.94242935 3.98463532 0 0 Z " fill="#606171" transform="translate(39,473)"/>
</svg>
